<mxfile host="Electron" agent="Mozilla/5.0 (X11; Linux x86_64) AppleWebKit/537.36 (KHTML, like Gecko) draw.io/24.7.8 Chrome/128.0.6613.36 Electron/32.0.1 Safari/537.36" version="24.7.8">
  <diagram name="PÃ¡gina-1" id="QIcvCa8LAM7jSrfbCdw6">
    <mxGraphModel dx="2385" dy="4368" grid="1" gridSize="10" guides="1" tooltips="1" connect="1" arrows="1" fold="1" page="1" pageScale="1" pageWidth="900" pageHeight="1600" math="0" shadow="0">
      <root>
        <mxCell id="0" />
        <mxCell id="1" parent="0" />
        <mxCell id="Ki0xYYPNDZwyPiwaxu65-1" value="" style="shape=actor;whiteSpace=wrap;html=1;" parent="1" vertex="1">
          <mxGeometry x="-340" y="767.5" width="140" height="195" as="geometry" />
        </mxCell>
        <mxCell id="Ki0xYYPNDZwyPiwaxu65-2" value="Client / WebApp" style="swimlane;whiteSpace=wrap;html=1;" parent="1" vertex="1">
          <mxGeometry x="-90" y="60" width="1320" height="1360" as="geometry">
            <mxRectangle x="200" y="170" width="120" height="30" as="alternateBounds" />
          </mxGeometry>
        </mxCell>
        <mxCell id="Ki0xYYPNDZwyPiwaxu65-334" value="APIs Route Calls" style="swimlane;whiteSpace=wrap;html=1;startSize=23;" parent="Ki0xYYPNDZwyPiwaxu65-2" vertex="1">
          <mxGeometry x="1090" y="39" width="200" height="359" as="geometry" />
        </mxCell>
        <mxCell id="Ki0xYYPNDZwyPiwaxu65-347" value="&lt;b&gt;/analyze&lt;/b&gt;" style="rounded=0;whiteSpace=wrap;html=1;" parent="Ki0xYYPNDZwyPiwaxu65-334" vertex="1">
          <mxGeometry x="40" y="45" width="120" height="60" as="geometry" />
        </mxCell>
        <mxCell id="Ki0xYYPNDZwyPiwaxu65-348" value="&lt;b&gt;/generate&lt;/b&gt;" style="rounded=0;whiteSpace=wrap;html=1;" parent="Ki0xYYPNDZwyPiwaxu65-334" vertex="1">
          <mxGeometry x="40" y="120" width="120" height="60" as="geometry" />
        </mxCell>
        <mxCell id="Ki0xYYPNDZwyPiwaxu65-370" value="&lt;b&gt;/store&lt;/b&gt;" style="rounded=0;whiteSpace=wrap;html=1;" parent="Ki0xYYPNDZwyPiwaxu65-334" vertex="1">
          <mxGeometry x="40" y="199" width="120" height="60" as="geometry" />
        </mxCell>
        <mxCell id="Ki0xYYPNDZwyPiwaxu65-371" value="&lt;b&gt;/verify/:id&lt;/b&gt;" style="rounded=0;whiteSpace=wrap;html=1;" parent="Ki0xYYPNDZwyPiwaxu65-334" vertex="1">
          <mxGeometry x="40" y="279" width="120" height="60" as="geometry" />
        </mxCell>
        <mxCell id="a3jmj70PFrFVS5s3Yc7b-36" value="Pages" style="swimlane;whiteSpace=wrap;html=1;" parent="Ki0xYYPNDZwyPiwaxu65-2" vertex="1">
          <mxGeometry x="10" y="39" width="1050" height="1301" as="geometry" />
        </mxCell>
        <mxCell id="a3jmj70PFrFVS5s3Yc7b-23" value="View Password" style="swimlane;horizontal=0;whiteSpace=wrap;html=1;" parent="a3jmj70PFrFVS5s3Yc7b-36" vertex="1">
          <mxGeometry x="20" y="33.5" width="1010" height="442.5" as="geometry" />
        </mxCell>
        <mxCell id="a3jmj70PFrFVS5s3Yc7b-26" value="" style="edgeStyle=orthogonalEdgeStyle;rounded=0;orthogonalLoop=1;jettySize=auto;html=1;" parent="a3jmj70PFrFVS5s3Yc7b-23" source="a3jmj70PFrFVS5s3Yc7b-24" target="a3jmj70PFrFVS5s3Yc7b-25" edge="1">
          <mxGeometry relative="1" as="geometry" />
        </mxCell>
        <mxCell id="a3jmj70PFrFVS5s3Yc7b-24" value="" style="strokeWidth=2;html=1;shape=mxgraph.flowchart.start_2;whiteSpace=wrap;" parent="a3jmj70PFrFVS5s3Yc7b-23" vertex="1">
          <mxGeometry x="80" y="196.25" width="50" height="50" as="geometry" />
        </mxCell>
        <mxCell id="a3jmj70PFrFVS5s3Yc7b-28" value="" style="edgeStyle=orthogonalEdgeStyle;rounded=0;orthogonalLoop=1;jettySize=auto;html=1;" parent="a3jmj70PFrFVS5s3Yc7b-23" source="a3jmj70PFrFVS5s3Yc7b-25" target="a3jmj70PFrFVS5s3Yc7b-27" edge="1">
          <mxGeometry relative="1" as="geometry" />
        </mxCell>
        <mxCell id="a3jmj70PFrFVS5s3Yc7b-25" value="Call Verify API Route" style="whiteSpace=wrap;html=1;strokeWidth=2;" parent="a3jmj70PFrFVS5s3Yc7b-23" vertex="1">
          <mxGeometry x="175" y="191.25" width="145" height="60" as="geometry" />
        </mxCell>
        <mxCell id="a3jmj70PFrFVS5s3Yc7b-30" value="" style="edgeStyle=orthogonalEdgeStyle;rounded=0;orthogonalLoop=1;jettySize=auto;html=1;" parent="a3jmj70PFrFVS5s3Yc7b-23" source="a3jmj70PFrFVS5s3Yc7b-27" target="a3jmj70PFrFVS5s3Yc7b-29" edge="1">
          <mxGeometry relative="1" as="geometry" />
        </mxCell>
        <mxCell id="a3jmj70PFrFVS5s3Yc7b-27" value="Await Response" style="whiteSpace=wrap;html=1;strokeWidth=2;" parent="a3jmj70PFrFVS5s3Yc7b-23" vertex="1">
          <mxGeometry x="412.5" y="191.25" width="120" height="60" as="geometry" />
        </mxCell>
        <mxCell id="a3jmj70PFrFVS5s3Yc7b-44" value="" style="edgeStyle=orthogonalEdgeStyle;rounded=0;orthogonalLoop=1;jettySize=auto;html=1;" parent="a3jmj70PFrFVS5s3Yc7b-23" source="a3jmj70PFrFVS5s3Yc7b-29" target="a3jmj70PFrFVS5s3Yc7b-43" edge="1">
          <mxGeometry relative="1" as="geometry" />
        </mxCell>
        <mxCell id="a3jmj70PFrFVS5s3Yc7b-45" value="Yes" style="edgeLabel;html=1;align=center;verticalAlign=middle;resizable=0;points=[];" parent="a3jmj70PFrFVS5s3Yc7b-44" vertex="1" connectable="0">
          <mxGeometry x="-0.1354" y="2" relative="1" as="geometry">
            <mxPoint x="2" y="-3" as="offset" />
          </mxGeometry>
        </mxCell>
        <mxCell id="9" value="" style="edgeStyle=none;html=1;" parent="a3jmj70PFrFVS5s3Yc7b-23" source="a3jmj70PFrFVS5s3Yc7b-29" target="8" edge="1">
          <mxGeometry relative="1" as="geometry" />
        </mxCell>
        <mxCell id="a3jmj70PFrFVS5s3Yc7b-29" value="&lt;div style=&quot;&quot;&gt;&lt;span style=&quot;background-color: initial;&quot;&gt;Sucessfully Recover Data?&lt;/span&gt;&lt;/div&gt;" style="rhombus;whiteSpace=wrap;html=1;strokeWidth=2;align=center;" parent="a3jmj70PFrFVS5s3Yc7b-23" vertex="1">
          <mxGeometry x="620" y="176.25" width="107.5" height="90" as="geometry" />
        </mxCell>
        <mxCell id="a3jmj70PFrFVS5s3Yc7b-40" style="edgeStyle=orthogonalEdgeStyle;rounded=0;orthogonalLoop=1;jettySize=auto;html=1;exitX=0.5;exitY=1;exitDx=0;exitDy=0;entryX=0.5;entryY=0;entryDx=0;entryDy=0;" parent="a3jmj70PFrFVS5s3Yc7b-23" source="a3jmj70PFrFVS5s3Yc7b-31" target="a3jmj70PFrFVS5s3Yc7b-38" edge="1">
          <mxGeometry relative="1" as="geometry" />
        </mxCell>
        <mxCell id="a3jmj70PFrFVS5s3Yc7b-31" value="Show Password Data" style="whiteSpace=wrap;html=1;strokeWidth=2;" parent="a3jmj70PFrFVS5s3Yc7b-23" vertex="1">
          <mxGeometry x="828.4399999999999" y="21.25" width="93.13" height="60" as="geometry" />
        </mxCell>
        <mxCell id="a3jmj70PFrFVS5s3Yc7b-38" value="" style="ellipse;whiteSpace=wrap;html=1;aspect=fixed;" parent="a3jmj70PFrFVS5s3Yc7b-23" vertex="1">
          <mxGeometry x="850" y="176.25" width="50" height="50" as="geometry" />
        </mxCell>
        <mxCell id="a3jmj70PFrFVS5s3Yc7b-39" value="" style="ellipse;whiteSpace=wrap;html=1;aspect=fixed;fillColor=#FFFFFF;" parent="a3jmj70PFrFVS5s3Yc7b-23" vertex="1">
          <mxGeometry x="853.75" y="180" width="42.5" height="42.5" as="geometry" />
        </mxCell>
        <mxCell id="a3jmj70PFrFVS5s3Yc7b-46" style="edgeStyle=orthogonalEdgeStyle;rounded=0;orthogonalLoop=1;jettySize=auto;html=1;exitX=1;exitY=0.5;exitDx=0;exitDy=0;entryX=0;entryY=0.5;entryDx=0;entryDy=0;" parent="a3jmj70PFrFVS5s3Yc7b-23" source="a3jmj70PFrFVS5s3Yc7b-43" target="a3jmj70PFrFVS5s3Yc7b-31" edge="1">
          <mxGeometry relative="1" as="geometry" />
        </mxCell>
        <mxCell id="a3jmj70PFrFVS5s3Yc7b-43" value="Decrypt Password" style="whiteSpace=wrap;html=1;strokeWidth=2;" parent="a3jmj70PFrFVS5s3Yc7b-23" vertex="1">
          <mxGeometry x="613.75" y="21.25" width="120" height="60" as="geometry" />
        </mxCell>
        <mxCell id="12" value="" style="edgeStyle=none;html=1;" parent="a3jmj70PFrFVS5s3Yc7b-23" source="8" target="11" edge="1">
          <mxGeometry relative="1" as="geometry" />
        </mxCell>
        <mxCell id="8" value="Show Button to Create a New Password" style="whiteSpace=wrap;html=1;strokeWidth=2;" parent="a3jmj70PFrFVS5s3Yc7b-23" vertex="1">
          <mxGeometry x="613.75" y="327.5" width="120" height="60" as="geometry" />
        </mxCell>
        <mxCell id="13" style="edgeStyle=none;html=1;exitX=0.5;exitY=0;exitDx=0;exitDy=0;entryX=0.5;entryY=1;entryDx=0;entryDy=0;" parent="a3jmj70PFrFVS5s3Yc7b-23" source="11" target="a3jmj70PFrFVS5s3Yc7b-38" edge="1">
          <mxGeometry relative="1" as="geometry" />
        </mxCell>
        <mxCell id="11" value="Redirects to Create Password Page" style="whiteSpace=wrap;html=1;strokeWidth=2;" parent="a3jmj70PFrFVS5s3Yc7b-23" vertex="1">
          <mxGeometry x="815.01" y="327.5" width="120" height="60" as="geometry" />
        </mxCell>
        <mxCell id="Ki0xYYPNDZwyPiwaxu65-336" value="Create Password" style="swimlane;horizontal=0;whiteSpace=wrap;html=1;startSize=20;" parent="a3jmj70PFrFVS5s3Yc7b-36" vertex="1">
          <mxGeometry x="20" y="491" width="1010" height="790" as="geometry">
            <mxRectangle x="20" y="50" width="40" height="150" as="alternateBounds" />
          </mxGeometry>
        </mxCell>
        <mxCell id="Ki0xYYPNDZwyPiwaxu65-340" value="" style="edgeStyle=orthogonalEdgeStyle;rounded=0;orthogonalLoop=1;jettySize=auto;html=1;" parent="Ki0xYYPNDZwyPiwaxu65-336" source="Ki0xYYPNDZwyPiwaxu65-338" target="Ki0xYYPNDZwyPiwaxu65-339" edge="1">
          <mxGeometry relative="1" as="geometry" />
        </mxCell>
        <mxCell id="Ki0xYYPNDZwyPiwaxu65-338" value="" style="strokeWidth=2;html=1;shape=mxgraph.flowchart.start_2;whiteSpace=wrap;" parent="Ki0xYYPNDZwyPiwaxu65-336" vertex="1">
          <mxGeometry x="86.25" y="100" width="50" height="50" as="geometry" />
        </mxCell>
        <mxCell id="Ki0xYYPNDZwyPiwaxu65-344" value="" style="edgeStyle=orthogonalEdgeStyle;rounded=0;orthogonalLoop=1;jettySize=auto;html=1;exitX=0.5;exitY=1;exitDx=0;exitDy=0;entryX=0;entryY=0.5;entryDx=0;entryDy=0;" parent="Ki0xYYPNDZwyPiwaxu65-336" source="Ki0xYYPNDZwyPiwaxu65-339" target="Ki0xYYPNDZwyPiwaxu65-346" edge="1">
          <mxGeometry relative="1" as="geometry" />
        </mxCell>
        <mxCell id="a3jmj70PFrFVS5s3Yc7b-37" style="edgeStyle=orthogonalEdgeStyle;rounded=0;orthogonalLoop=1;jettySize=auto;html=1;exitX=0.5;exitY=0;exitDx=0;exitDy=0;entryX=0;entryY=0.5;entryDx=0;entryDy=0;" parent="Ki0xYYPNDZwyPiwaxu65-336" source="Ki0xYYPNDZwyPiwaxu65-339" target="Ki0xYYPNDZwyPiwaxu65-343" edge="1">
          <mxGeometry relative="1" as="geometry" />
        </mxCell>
        <mxCell id="Ki0xYYPNDZwyPiwaxu65-339" value="Action" style="whiteSpace=wrap;html=1;strokeWidth=2;" parent="Ki0xYYPNDZwyPiwaxu65-336" vertex="1">
          <mxGeometry x="176.25" y="105" width="80" height="40" as="geometry" />
        </mxCell>
        <mxCell id="Ki0xYYPNDZwyPiwaxu65-373" value="" style="edgeStyle=orthogonalEdgeStyle;rounded=0;orthogonalLoop=1;jettySize=auto;html=1;" parent="Ki0xYYPNDZwyPiwaxu65-336" source="Ki0xYYPNDZwyPiwaxu65-343" target="Ki0xYYPNDZwyPiwaxu65-372" edge="1">
          <mxGeometry relative="1" as="geometry" />
        </mxCell>
        <mxCell id="Ki0xYYPNDZwyPiwaxu65-343" value="Type Password" style="whiteSpace=wrap;html=1;strokeWidth=2;" parent="Ki0xYYPNDZwyPiwaxu65-336" vertex="1">
          <mxGeometry x="286.25" y="50" width="80" height="40" as="geometry" />
        </mxCell>
        <mxCell id="Ki0xYYPNDZwyPiwaxu65-375" value="" style="edgeStyle=orthogonalEdgeStyle;rounded=0;orthogonalLoop=1;jettySize=auto;html=1;" parent="Ki0xYYPNDZwyPiwaxu65-336" source="Ki0xYYPNDZwyPiwaxu65-346" target="Ki0xYYPNDZwyPiwaxu65-374" edge="1">
          <mxGeometry relative="1" as="geometry" />
        </mxCell>
        <mxCell id="Ki0xYYPNDZwyPiwaxu65-346" value="Generate Random Password" style="whiteSpace=wrap;html=1;strokeWidth=2;" parent="Ki0xYYPNDZwyPiwaxu65-336" vertex="1">
          <mxGeometry x="256.25" y="210" width="120" height="40" as="geometry" />
        </mxCell>
        <mxCell id="Ki0xYYPNDZwyPiwaxu65-377" style="edgeStyle=orthogonalEdgeStyle;rounded=0;orthogonalLoop=1;jettySize=auto;html=1;exitX=0.5;exitY=1;exitDx=0;exitDy=0;entryX=0;entryY=0.25;entryDx=0;entryDy=0;" parent="Ki0xYYPNDZwyPiwaxu65-336" source="Ki0xYYPNDZwyPiwaxu65-372" target="Ki0xYYPNDZwyPiwaxu65-376" edge="1">
          <mxGeometry relative="1" as="geometry" />
        </mxCell>
        <mxCell id="Ki0xYYPNDZwyPiwaxu65-372" value="Call Analyze API Route" style="whiteSpace=wrap;html=1;strokeWidth=2;" parent="Ki0xYYPNDZwyPiwaxu65-336" vertex="1">
          <mxGeometry x="426.25" y="40" width="120" height="60" as="geometry" />
        </mxCell>
        <mxCell id="Ki0xYYPNDZwyPiwaxu65-378" style="edgeStyle=orthogonalEdgeStyle;rounded=0;orthogonalLoop=1;jettySize=auto;html=1;exitX=0.5;exitY=0;exitDx=0;exitDy=0;entryX=0;entryY=0.75;entryDx=0;entryDy=0;" parent="Ki0xYYPNDZwyPiwaxu65-336" source="Ki0xYYPNDZwyPiwaxu65-374" target="Ki0xYYPNDZwyPiwaxu65-376" edge="1">
          <mxGeometry relative="1" as="geometry" />
        </mxCell>
        <mxCell id="Ki0xYYPNDZwyPiwaxu65-374" value="Call Generate API Route" style="whiteSpace=wrap;html=1;strokeWidth=2;" parent="Ki0xYYPNDZwyPiwaxu65-336" vertex="1">
          <mxGeometry x="426.25" y="200" width="120" height="60" as="geometry" />
        </mxCell>
        <mxCell id="Ki0xYYPNDZwyPiwaxu65-380" value="" style="edgeStyle=orthogonalEdgeStyle;rounded=0;orthogonalLoop=1;jettySize=auto;html=1;" parent="Ki0xYYPNDZwyPiwaxu65-336" source="Ki0xYYPNDZwyPiwaxu65-376" target="Ki0xYYPNDZwyPiwaxu65-379" edge="1">
          <mxGeometry relative="1" as="geometry" />
        </mxCell>
        <mxCell id="Ki0xYYPNDZwyPiwaxu65-376" value="Await Response" style="rounded=0;whiteSpace=wrap;html=1;" parent="Ki0xYYPNDZwyPiwaxu65-336" vertex="1">
          <mxGeometry x="681.25" y="130" width="120" height="60" as="geometry" />
        </mxCell>
        <mxCell id="Ki0xYYPNDZwyPiwaxu65-382" value="" style="edgeStyle=orthogonalEdgeStyle;rounded=0;orthogonalLoop=1;jettySize=auto;html=1;" parent="Ki0xYYPNDZwyPiwaxu65-336" source="Ki0xYYPNDZwyPiwaxu65-379" target="Ki0xYYPNDZwyPiwaxu65-381" edge="1">
          <mxGeometry relative="1" as="geometry" />
        </mxCell>
        <mxCell id="Ki0xYYPNDZwyPiwaxu65-384" value="No" style="edgeLabel;html=1;align=center;verticalAlign=middle;resizable=0;points=[];" parent="Ki0xYYPNDZwyPiwaxu65-382" vertex="1" connectable="0">
          <mxGeometry x="0.0462" y="2" relative="1" as="geometry">
            <mxPoint y="-2" as="offset" />
          </mxGeometry>
        </mxCell>
        <mxCell id="Ki0xYYPNDZwyPiwaxu65-386" value="" style="edgeStyle=orthogonalEdgeStyle;rounded=0;orthogonalLoop=1;jettySize=auto;html=1;" parent="Ki0xYYPNDZwyPiwaxu65-336" source="Ki0xYYPNDZwyPiwaxu65-379" target="Ki0xYYPNDZwyPiwaxu65-385" edge="1">
          <mxGeometry relative="1" as="geometry" />
        </mxCell>
        <mxCell id="Ki0xYYPNDZwyPiwaxu65-387" value="Yes" style="edgeLabel;html=1;align=center;verticalAlign=middle;resizable=0;points=[];" parent="Ki0xYYPNDZwyPiwaxu65-386" vertex="1" connectable="0">
          <mxGeometry x="-0.0526" y="4" relative="1" as="geometry">
            <mxPoint x="-4" y="-2" as="offset" />
          </mxGeometry>
        </mxCell>
        <mxCell id="Ki0xYYPNDZwyPiwaxu65-379" value="Valid Password?" style="rhombus;whiteSpace=wrap;html=1;rounded=0;" parent="Ki0xYYPNDZwyPiwaxu65-336" vertex="1">
          <mxGeometry x="831.25" y="260" width="90" height="90" as="geometry" />
        </mxCell>
        <mxCell id="Ki0xYYPNDZwyPiwaxu65-381" value="&lt;b&gt;Show Error&lt;/b&gt;" style="whiteSpace=wrap;html=1;rounded=0;fillColor=#a20025;fontColor=#ffffff;strokeColor=#6F0000;" parent="Ki0xYYPNDZwyPiwaxu65-336" vertex="1">
          <mxGeometry x="360" y="295" width="120" height="60" as="geometry" />
        </mxCell>
        <mxCell id="Ki0xYYPNDZwyPiwaxu65-383" style="edgeStyle=orthogonalEdgeStyle;rounded=0;orthogonalLoop=1;jettySize=auto;html=1;exitX=0;exitY=0.5;exitDx=0;exitDy=0;entryX=0.5;entryY=1;entryDx=0;entryDy=0;entryPerimeter=0;" parent="Ki0xYYPNDZwyPiwaxu65-336" source="Ki0xYYPNDZwyPiwaxu65-381" target="Ki0xYYPNDZwyPiwaxu65-338" edge="1">
          <mxGeometry relative="1" as="geometry" />
        </mxCell>
        <mxCell id="Ki0xYYPNDZwyPiwaxu65-401" value="" style="edgeStyle=orthogonalEdgeStyle;rounded=0;orthogonalLoop=1;jettySize=auto;html=1;" parent="Ki0xYYPNDZwyPiwaxu65-336" source="Ki0xYYPNDZwyPiwaxu65-385" target="Ki0xYYPNDZwyPiwaxu65-400" edge="1">
          <mxGeometry relative="1" as="geometry" />
        </mxCell>
        <mxCell id="Ki0xYYPNDZwyPiwaxu65-385" value="Choose Number of Times to Access Password and Expire Date" style="whiteSpace=wrap;html=1;rounded=0;" parent="Ki0xYYPNDZwyPiwaxu65-336" vertex="1">
          <mxGeometry x="786.25" y="450" width="180" height="60" as="geometry" />
        </mxCell>
        <mxCell id="Ki0xYYPNDZwyPiwaxu65-391" value="" style="edgeStyle=orthogonalEdgeStyle;rounded=0;orthogonalLoop=1;jettySize=auto;html=1;" parent="Ki0xYYPNDZwyPiwaxu65-336" source="Ki0xYYPNDZwyPiwaxu65-388" target="Ki0xYYPNDZwyPiwaxu65-390" edge="1">
          <mxGeometry relative="1" as="geometry" />
        </mxCell>
        <mxCell id="Ki0xYYPNDZwyPiwaxu65-388" value="Call Store API Route" style="whiteSpace=wrap;html=1;rounded=0;" parent="Ki0xYYPNDZwyPiwaxu65-336" vertex="1">
          <mxGeometry x="820" y="700" width="120" height="60" as="geometry" />
        </mxCell>
        <mxCell id="Ki0xYYPNDZwyPiwaxu65-393" value="" style="edgeStyle=orthogonalEdgeStyle;rounded=0;orthogonalLoop=1;jettySize=auto;html=1;" parent="Ki0xYYPNDZwyPiwaxu65-336" source="Ki0xYYPNDZwyPiwaxu65-390" target="Ki0xYYPNDZwyPiwaxu65-392" edge="1">
          <mxGeometry relative="1" as="geometry" />
        </mxCell>
        <mxCell id="Ki0xYYPNDZwyPiwaxu65-390" value="Await Response" style="whiteSpace=wrap;html=1;rounded=0;" parent="Ki0xYYPNDZwyPiwaxu65-336" vertex="1">
          <mxGeometry x="640" y="610" width="120" height="60" as="geometry" />
        </mxCell>
        <mxCell id="Ki0xYYPNDZwyPiwaxu65-397" style="edgeStyle=orthogonalEdgeStyle;rounded=0;orthogonalLoop=1;jettySize=auto;html=1;exitX=0.5;exitY=0;exitDx=0;exitDy=0;entryX=0.5;entryY=1;entryDx=0;entryDy=0;" parent="Ki0xYYPNDZwyPiwaxu65-336" source="Ki0xYYPNDZwyPiwaxu65-392" target="Ki0xYYPNDZwyPiwaxu65-396" edge="1">
          <mxGeometry relative="1" as="geometry" />
        </mxCell>
        <mxCell id="Ki0xYYPNDZwyPiwaxu65-403" value="No" style="edgeLabel;html=1;align=center;verticalAlign=middle;resizable=0;points=[];" parent="Ki0xYYPNDZwyPiwaxu65-397" vertex="1" connectable="0">
          <mxGeometry x="0.502" y="-3" relative="1" as="geometry">
            <mxPoint x="-4" y="-11" as="offset" />
          </mxGeometry>
        </mxCell>
        <mxCell id="3" value="" style="edgeStyle=none;html=1;" parent="Ki0xYYPNDZwyPiwaxu65-336" source="Ki0xYYPNDZwyPiwaxu65-392" target="2" edge="1">
          <mxGeometry relative="1" as="geometry" />
        </mxCell>
        <mxCell id="7" value="Yes" style="edgeLabel;html=1;align=center;verticalAlign=middle;resizable=0;points=[];" parent="3" vertex="1" connectable="0">
          <mxGeometry x="-0.1968" y="-1" relative="1" as="geometry">
            <mxPoint as="offset" />
          </mxGeometry>
        </mxCell>
        <mxCell id="Ki0xYYPNDZwyPiwaxu65-392" value="Successfully Stored?" style="rhombus;whiteSpace=wrap;html=1;rounded=0;" parent="Ki0xYYPNDZwyPiwaxu65-336" vertex="1">
          <mxGeometry x="460" y="592.5" width="110" height="95" as="geometry" />
        </mxCell>
        <mxCell id="Ki0xYYPNDZwyPiwaxu65-399" style="edgeStyle=orthogonalEdgeStyle;rounded=0;orthogonalLoop=1;jettySize=auto;html=1;exitX=1;exitY=0.5;exitDx=0;exitDy=0;entryX=0;entryY=0.5;entryDx=0;entryDy=0;" parent="Ki0xYYPNDZwyPiwaxu65-336" source="Ki0xYYPNDZwyPiwaxu65-396" target="Ki0xYYPNDZwyPiwaxu65-385" edge="1">
          <mxGeometry relative="1" as="geometry" />
        </mxCell>
        <mxCell id="Ki0xYYPNDZwyPiwaxu65-396" value="&lt;b&gt;Show Error&lt;/b&gt;" style="whiteSpace=wrap;html=1;rounded=0;fillColor=#a20025;fontColor=#ffffff;strokeColor=#6F0000;" parent="Ki0xYYPNDZwyPiwaxu65-336" vertex="1">
          <mxGeometry x="361.25" y="380" width="120" height="60" as="geometry" />
        </mxCell>
        <mxCell id="Ki0xYYPNDZwyPiwaxu65-402" style="edgeStyle=orthogonalEdgeStyle;rounded=0;orthogonalLoop=1;jettySize=auto;html=1;exitX=0.5;exitY=1;exitDx=0;exitDy=0;entryX=0.5;entryY=0;entryDx=0;entryDy=0;" parent="Ki0xYYPNDZwyPiwaxu65-336" source="Ki0xYYPNDZwyPiwaxu65-400" target="Ki0xYYPNDZwyPiwaxu65-388" edge="1">
          <mxGeometry relative="1" as="geometry" />
        </mxCell>
        <mxCell id="Ki0xYYPNDZwyPiwaxu65-400" value="Encrypt Password" style="whiteSpace=wrap;html=1;rounded=0;" parent="Ki0xYYPNDZwyPiwaxu65-336" vertex="1">
          <mxGeometry x="820" y="580" width="120" height="60" as="geometry" />
        </mxCell>
        <mxCell id="Ki0xYYPNDZwyPiwaxu65-408" style="edgeStyle=orthogonalEdgeStyle;rounded=0;orthogonalLoop=1;jettySize=auto;html=1;exitX=0.5;exitY=1;exitDx=0;exitDy=0;entryX=0.5;entryY=0;entryDx=0;entryDy=0;" parent="Ki0xYYPNDZwyPiwaxu65-336" source="Ki0xYYPNDZwyPiwaxu65-404" target="Ki0xYYPNDZwyPiwaxu65-406" edge="1">
          <mxGeometry relative="1" as="geometry" />
        </mxCell>
        <mxCell id="Ki0xYYPNDZwyPiwaxu65-404" value="Redirects to View Password Page" style="whiteSpace=wrap;html=1;rounded=0;" parent="Ki0xYYPNDZwyPiwaxu65-336" vertex="1">
          <mxGeometry x="110" y="470" width="120" height="60" as="geometry" />
        </mxCell>
        <mxCell id="Ki0xYYPNDZwyPiwaxu65-406" value="" style="ellipse;whiteSpace=wrap;html=1;aspect=fixed;" parent="Ki0xYYPNDZwyPiwaxu65-336" vertex="1">
          <mxGeometry x="145" y="610" width="50" height="50" as="geometry" />
        </mxCell>
        <mxCell id="Ki0xYYPNDZwyPiwaxu65-407" value="" style="ellipse;whiteSpace=wrap;html=1;aspect=fixed;fillColor=#FFFFFF;" parent="Ki0xYYPNDZwyPiwaxu65-336" vertex="1">
          <mxGeometry x="148.75" y="613.75" width="42.5" height="42.5" as="geometry" />
        </mxCell>
        <mxCell id="6" style="edgeStyle=none;html=1;exitX=0.5;exitY=0;exitDx=0;exitDy=0;entryX=1;entryY=0.5;entryDx=0;entryDy=0;" parent="Ki0xYYPNDZwyPiwaxu65-336" source="2" target="Ki0xYYPNDZwyPiwaxu65-404" edge="1">
          <mxGeometry relative="1" as="geometry">
            <Array as="points">
              <mxPoint x="325" y="500" />
            </Array>
          </mxGeometry>
        </mxCell>
        <mxCell id="2" value="Show Link to Access Password" style="whiteSpace=wrap;html=1;rounded=0;" parent="Ki0xYYPNDZwyPiwaxu65-336" vertex="1">
          <mxGeometry x="265" y="610" width="120" height="60" as="geometry" />
        </mxCell>
        <mxCell id="a3jmj70PFrFVS5s3Yc7b-51" value="Services" style="swimlane;whiteSpace=wrap;html=1;" parent="Ki0xYYPNDZwyPiwaxu65-2" vertex="1">
          <mxGeometry x="1090" y="420" width="200" height="150" as="geometry" />
        </mxCell>
        <mxCell id="a3jmj70PFrFVS5s3Yc7b-52" value="&lt;b&gt;Api Service&lt;/b&gt;" style="rounded=0;whiteSpace=wrap;html=1;" parent="a3jmj70PFrFVS5s3Yc7b-51" vertex="1">
          <mxGeometry x="40" y="50" width="120" height="60" as="geometry" />
        </mxCell>
        <mxCell id="Ki0xYYPNDZwyPiwaxu65-29" value="Amazon API Gateway" style="swimlane;" parent="1" vertex="1">
          <mxGeometry x="1480" y="50" width="610" height="710" as="geometry" />
        </mxCell>
        <mxCell id="Ki0xYYPNDZwyPiwaxu65-32" value="API (Leviathan)" style="swimlane;childLayout=stackLayout;resizeParent=1;resizeParentMax=0;horizontal=1;startSize=20;horizontalStack=0;html=1;" parent="Ki0xYYPNDZwyPiwaxu65-29" vertex="1">
          <mxGeometry x="15" y="35" width="580" height="660" as="geometry" />
        </mxCell>
        <mxCell id="Ki0xYYPNDZwyPiwaxu65-39" value="&lt;font color=&quot;#ffffff&quot;&gt;Verify&lt;/font&gt;" style="swimlane;startSize=30;horizontal=0;html=1;fillColor=#fa6800;fontColor=#000000;strokeColor=#C73500;" parent="Ki0xYYPNDZwyPiwaxu65-32" vertex="1">
          <mxGeometry y="20" width="580" height="160" as="geometry" />
        </mxCell>
        <mxCell id="Ki0xYYPNDZwyPiwaxu65-193" value="" style="edgeStyle=orthogonalEdgeStyle;rounded=0;orthogonalLoop=1;jettySize=auto;html=1;" parent="Ki0xYYPNDZwyPiwaxu65-39" source="Ki0xYYPNDZwyPiwaxu65-194" target="Ki0xYYPNDZwyPiwaxu65-196" edge="1">
          <mxGeometry relative="1" as="geometry" />
        </mxCell>
        <mxCell id="Ki0xYYPNDZwyPiwaxu65-194" value="" style="strokeWidth=2;html=1;shape=mxgraph.flowchart.start_2;whiteSpace=wrap;" parent="Ki0xYYPNDZwyPiwaxu65-39" vertex="1">
          <mxGeometry x="40" y="30" width="30" height="30" as="geometry" />
        </mxCell>
        <mxCell id="Ki0xYYPNDZwyPiwaxu65-195" value="" style="edgeStyle=orthogonalEdgeStyle;rounded=0;orthogonalLoop=1;jettySize=auto;html=1;" parent="Ki0xYYPNDZwyPiwaxu65-39" source="Ki0xYYPNDZwyPiwaxu65-196" target="Ki0xYYPNDZwyPiwaxu65-197" edge="1">
          <mxGeometry relative="1" as="geometry" />
        </mxCell>
        <mxCell id="Ki0xYYPNDZwyPiwaxu65-196" value="&lt;b&gt;&lt;font color=&quot;#ffffff&quot;&gt;Request Method&lt;/font&gt;&lt;/b&gt;" style="whiteSpace=wrap;html=1;strokeWidth=2;fillColor=#fa6800;fontColor=#000000;strokeColor=#C73500;" parent="Ki0xYYPNDZwyPiwaxu65-39" vertex="1">
          <mxGeometry x="105" y="15" width="120" height="60" as="geometry" />
        </mxCell>
        <mxCell id="a3jmj70PFrFVS5s3Yc7b-66" style="edgeStyle=orthogonalEdgeStyle;rounded=0;orthogonalLoop=1;jettySize=auto;html=1;exitX=1;exitY=0.5;exitDx=0;exitDy=0;entryX=0;entryY=0.25;entryDx=0;entryDy=0;" parent="Ki0xYYPNDZwyPiwaxu65-39" source="Ki0xYYPNDZwyPiwaxu65-197" target="a3jmj70PFrFVS5s3Yc7b-53" edge="1">
          <mxGeometry relative="1" as="geometry" />
        </mxCell>
        <mxCell id="Ki0xYYPNDZwyPiwaxu65-197" value="&lt;b&gt;&lt;font color=&quot;#ffffff&quot;&gt;Request Integration&lt;/font&gt;&lt;/b&gt;" style="whiteSpace=wrap;html=1;strokeWidth=2;fillColor=#fa6800;fontColor=#000000;strokeColor=#C73500;" parent="Ki0xYYPNDZwyPiwaxu65-39" vertex="1">
          <mxGeometry x="260" y="15" width="120" height="60" as="geometry" />
        </mxCell>
        <mxCell id="Ki0xYYPNDZwyPiwaxu65-301" value="" style="strokeWidth=2;html=1;shape=mxgraph.flowchart.start_2;whiteSpace=wrap;" parent="Ki0xYYPNDZwyPiwaxu65-39" vertex="1">
          <mxGeometry x="40" y="100" width="30" height="30" as="geometry" />
        </mxCell>
        <mxCell id="Ki0xYYPNDZwyPiwaxu65-302" value="&lt;b&gt;&lt;font color=&quot;#ffffff&quot;&gt;Response Method&lt;/font&gt;&lt;/b&gt;" style="whiteSpace=wrap;html=1;strokeWidth=2;fillColor=#fa6800;fontColor=#000000;strokeColor=#C73500;" parent="Ki0xYYPNDZwyPiwaxu65-39" vertex="1">
          <mxGeometry x="105" y="85" width="120" height="60" as="geometry" />
        </mxCell>
        <mxCell id="Ki0xYYPNDZwyPiwaxu65-303" style="edgeStyle=orthogonalEdgeStyle;rounded=0;orthogonalLoop=1;jettySize=auto;html=1;exitX=0;exitY=0.5;exitDx=0;exitDy=0;entryX=1;entryY=0.5;entryDx=0;entryDy=0;" parent="Ki0xYYPNDZwyPiwaxu65-39" source="Ki0xYYPNDZwyPiwaxu65-304" target="Ki0xYYPNDZwyPiwaxu65-302" edge="1">
          <mxGeometry relative="1" as="geometry" />
        </mxCell>
        <mxCell id="Ki0xYYPNDZwyPiwaxu65-304" value="&lt;b&gt;&lt;font color=&quot;#ffffff&quot;&gt;Proxy Integration&lt;/font&gt;&lt;/b&gt;" style="whiteSpace=wrap;html=1;strokeWidth=2;fillColor=#fa6800;fontColor=#000000;strokeColor=#C73500;" parent="Ki0xYYPNDZwyPiwaxu65-39" vertex="1">
          <mxGeometry x="260" y="85" width="120" height="60" as="geometry" />
        </mxCell>
        <mxCell id="Ki0xYYPNDZwyPiwaxu65-305" style="edgeStyle=orthogonalEdgeStyle;rounded=0;orthogonalLoop=1;jettySize=auto;html=1;exitX=0;exitY=0.5;exitDx=0;exitDy=0;entryX=1;entryY=0.5;entryDx=0;entryDy=0;entryPerimeter=0;" parent="Ki0xYYPNDZwyPiwaxu65-39" source="Ki0xYYPNDZwyPiwaxu65-302" target="Ki0xYYPNDZwyPiwaxu65-301" edge="1">
          <mxGeometry relative="1" as="geometry" />
        </mxCell>
        <mxCell id="a3jmj70PFrFVS5s3Yc7b-4" value="" style="ellipse;whiteSpace=wrap;html=1;aspect=fixed;strokeColor=none;fillColor=#FFFFFF;" parent="Ki0xYYPNDZwyPiwaxu65-39" vertex="1">
          <mxGeometry x="42.5" y="102.5" width="25" height="25" as="geometry" />
        </mxCell>
        <mxCell id="a3jmj70PFrFVS5s3Yc7b-65" style="edgeStyle=orthogonalEdgeStyle;rounded=0;orthogonalLoop=1;jettySize=auto;html=1;exitX=0;exitY=0.75;exitDx=0;exitDy=0;entryX=1;entryY=0.5;entryDx=0;entryDy=0;" parent="Ki0xYYPNDZwyPiwaxu65-39" source="a3jmj70PFrFVS5s3Yc7b-53" target="Ki0xYYPNDZwyPiwaxu65-304" edge="1">
          <mxGeometry relative="1" as="geometry" />
        </mxCell>
        <mxCell id="a3jmj70PFrFVS5s3Yc7b-53" value="&lt;font color=&quot;#ffffff&quot; style=&quot;font-size: 16px;&quot;&gt;&lt;b&gt;Lambda Integration&lt;/b&gt;&lt;/font&gt;&lt;div&gt;&lt;font color=&quot;#ffffff&quot; style=&quot;font-size: 16px;&quot;&gt;&lt;b&gt;(Verify Service)&lt;/b&gt;&lt;/font&gt;&lt;/div&gt;" style="whiteSpace=wrap;html=1;fillColor=#fa6800;strokeColor=#C73500;fontColor=#000000;strokeWidth=2;" parent="Ki0xYYPNDZwyPiwaxu65-39" vertex="1">
          <mxGeometry x="438" y="12.5" width="120" height="135" as="geometry" />
        </mxCell>
        <mxCell id="Ki0xYYPNDZwyPiwaxu65-35" value="Store" style="swimlane;startSize=30;horizontal=0;html=1;fillColor=#60a917;strokeColor=#2D7600;fontColor=#ffffff;" parent="Ki0xYYPNDZwyPiwaxu65-32" vertex="1">
          <mxGeometry y="180" width="580" height="160" as="geometry" />
        </mxCell>
        <mxCell id="Ki0xYYPNDZwyPiwaxu65-160" value="" style="edgeStyle=orthogonalEdgeStyle;rounded=0;orthogonalLoop=1;jettySize=auto;html=1;" parent="Ki0xYYPNDZwyPiwaxu65-35" source="Ki0xYYPNDZwyPiwaxu65-161" target="Ki0xYYPNDZwyPiwaxu65-163" edge="1">
          <mxGeometry relative="1" as="geometry" />
        </mxCell>
        <mxCell id="Ki0xYYPNDZwyPiwaxu65-161" value="" style="strokeWidth=2;html=1;shape=mxgraph.flowchart.start_2;whiteSpace=wrap;" parent="Ki0xYYPNDZwyPiwaxu65-35" vertex="1">
          <mxGeometry x="40" y="35" width="30" height="30" as="geometry" />
        </mxCell>
        <mxCell id="Ki0xYYPNDZwyPiwaxu65-162" value="" style="edgeStyle=orthogonalEdgeStyle;rounded=0;orthogonalLoop=1;jettySize=auto;html=1;" parent="Ki0xYYPNDZwyPiwaxu65-35" source="Ki0xYYPNDZwyPiwaxu65-163" target="Ki0xYYPNDZwyPiwaxu65-164" edge="1">
          <mxGeometry relative="1" as="geometry" />
        </mxCell>
        <mxCell id="Ki0xYYPNDZwyPiwaxu65-163" value="&lt;b&gt;Request Method&lt;/b&gt;" style="whiteSpace=wrap;html=1;strokeWidth=2;fillColor=#60a917;fontColor=#ffffff;strokeColor=#2D7600;" parent="Ki0xYYPNDZwyPiwaxu65-35" vertex="1">
          <mxGeometry x="105" y="20" width="120" height="60" as="geometry" />
        </mxCell>
        <mxCell id="a3jmj70PFrFVS5s3Yc7b-64" style="edgeStyle=orthogonalEdgeStyle;rounded=0;orthogonalLoop=1;jettySize=auto;html=1;exitX=1;exitY=0.5;exitDx=0;exitDy=0;entryX=0;entryY=0.25;entryDx=0;entryDy=0;" parent="Ki0xYYPNDZwyPiwaxu65-35" source="Ki0xYYPNDZwyPiwaxu65-164" target="a3jmj70PFrFVS5s3Yc7b-58" edge="1">
          <mxGeometry relative="1" as="geometry" />
        </mxCell>
        <mxCell id="Ki0xYYPNDZwyPiwaxu65-164" value="&lt;b&gt;Request Integration&lt;/b&gt;" style="whiteSpace=wrap;html=1;strokeWidth=2;fillColor=#60a917;fontColor=#ffffff;strokeColor=#2D7600;" parent="Ki0xYYPNDZwyPiwaxu65-35" vertex="1">
          <mxGeometry x="260" y="20" width="120" height="60" as="geometry" />
        </mxCell>
        <mxCell id="Ki0xYYPNDZwyPiwaxu65-210" value="" style="strokeWidth=2;html=1;shape=mxgraph.flowchart.start_2;whiteSpace=wrap;" parent="Ki0xYYPNDZwyPiwaxu65-35" vertex="1">
          <mxGeometry x="40" y="105" width="30" height="30" as="geometry" />
        </mxCell>
        <mxCell id="Ki0xYYPNDZwyPiwaxu65-211" value="&lt;b&gt;Response Method&lt;/b&gt;" style="whiteSpace=wrap;html=1;strokeWidth=2;fillColor=#60a917;fontColor=#ffffff;strokeColor=#2D7600;" parent="Ki0xYYPNDZwyPiwaxu65-35" vertex="1">
          <mxGeometry x="105" y="90" width="120" height="60" as="geometry" />
        </mxCell>
        <mxCell id="Ki0xYYPNDZwyPiwaxu65-212" style="edgeStyle=orthogonalEdgeStyle;rounded=0;orthogonalLoop=1;jettySize=auto;html=1;exitX=0;exitY=0.5;exitDx=0;exitDy=0;entryX=1;entryY=0.5;entryDx=0;entryDy=0;" parent="Ki0xYYPNDZwyPiwaxu65-35" source="Ki0xYYPNDZwyPiwaxu65-213" target="Ki0xYYPNDZwyPiwaxu65-211" edge="1">
          <mxGeometry relative="1" as="geometry" />
        </mxCell>
        <mxCell id="Ki0xYYPNDZwyPiwaxu65-213" value="&lt;b&gt;Proxy Integration&lt;/b&gt;" style="whiteSpace=wrap;html=1;strokeWidth=2;fillColor=#60a917;fontColor=#ffffff;strokeColor=#2D7600;" parent="Ki0xYYPNDZwyPiwaxu65-35" vertex="1">
          <mxGeometry x="260" y="90" width="120" height="60" as="geometry" />
        </mxCell>
        <mxCell id="Ki0xYYPNDZwyPiwaxu65-214" style="edgeStyle=orthogonalEdgeStyle;rounded=0;orthogonalLoop=1;jettySize=auto;html=1;exitX=0;exitY=0.5;exitDx=0;exitDy=0;entryX=1;entryY=0.5;entryDx=0;entryDy=0;entryPerimeter=0;" parent="Ki0xYYPNDZwyPiwaxu65-35" source="Ki0xYYPNDZwyPiwaxu65-211" target="Ki0xYYPNDZwyPiwaxu65-210" edge="1">
          <mxGeometry relative="1" as="geometry" />
        </mxCell>
        <mxCell id="a3jmj70PFrFVS5s3Yc7b-3" value="" style="ellipse;whiteSpace=wrap;html=1;aspect=fixed;strokeColor=none;fillColor=#FFFFFF;" parent="Ki0xYYPNDZwyPiwaxu65-35" vertex="1">
          <mxGeometry x="42.5" y="107.5" width="25" height="25" as="geometry" />
        </mxCell>
        <mxCell id="a3jmj70PFrFVS5s3Yc7b-63" style="edgeStyle=orthogonalEdgeStyle;rounded=0;orthogonalLoop=1;jettySize=auto;html=1;exitX=0;exitY=0.75;exitDx=0;exitDy=0;" parent="Ki0xYYPNDZwyPiwaxu65-35" source="a3jmj70PFrFVS5s3Yc7b-58" target="Ki0xYYPNDZwyPiwaxu65-213" edge="1">
          <mxGeometry relative="1" as="geometry" />
        </mxCell>
        <mxCell id="a3jmj70PFrFVS5s3Yc7b-58" value="&lt;font color=&quot;#ffffff&quot; style=&quot;font-size: 16px;&quot;&gt;&lt;b&gt;Lambda Integration&lt;/b&gt;&lt;/font&gt;&lt;div&gt;&lt;span style=&quot;font-size: 16px;&quot;&gt;&lt;b&gt;(Store Service)&lt;/b&gt;&lt;/span&gt;&lt;/div&gt;" style="whiteSpace=wrap;html=1;fillColor=#60a917;strokeColor=#2D7600;fontColor=#ffffff;strokeWidth=2;" parent="Ki0xYYPNDZwyPiwaxu65-35" vertex="1">
          <mxGeometry x="438" y="12.5" width="120" height="135" as="geometry" />
        </mxCell>
        <mxCell id="Ki0xYYPNDZwyPiwaxu65-34" value="Generate" style="swimlane;startSize=30;horizontal=0;html=1;fillColor=#1ba1e2;fontColor=#ffffff;strokeColor=#006EAF;" parent="Ki0xYYPNDZwyPiwaxu65-32" vertex="1">
          <mxGeometry y="340" width="580" height="160" as="geometry" />
        </mxCell>
        <mxCell id="Ki0xYYPNDZwyPiwaxu65-123" value="" style="edgeStyle=orthogonalEdgeStyle;rounded=0;orthogonalLoop=1;jettySize=auto;html=1;" parent="Ki0xYYPNDZwyPiwaxu65-34" source="Ki0xYYPNDZwyPiwaxu65-124" target="Ki0xYYPNDZwyPiwaxu65-126" edge="1">
          <mxGeometry relative="1" as="geometry" />
        </mxCell>
        <mxCell id="Ki0xYYPNDZwyPiwaxu65-159" value="" style="edgeStyle=orthogonalEdgeStyle;rounded=0;orthogonalLoop=1;jettySize=auto;html=1;" parent="Ki0xYYPNDZwyPiwaxu65-34" source="Ki0xYYPNDZwyPiwaxu65-124" target="Ki0xYYPNDZwyPiwaxu65-126" edge="1">
          <mxGeometry relative="1" as="geometry" />
        </mxCell>
        <mxCell id="Ki0xYYPNDZwyPiwaxu65-124" value="" style="strokeWidth=2;html=1;shape=mxgraph.flowchart.start_2;whiteSpace=wrap;" parent="Ki0xYYPNDZwyPiwaxu65-34" vertex="1">
          <mxGeometry x="40" y="35" width="30" height="30" as="geometry" />
        </mxCell>
        <mxCell id="Ki0xYYPNDZwyPiwaxu65-125" value="" style="edgeStyle=orthogonalEdgeStyle;rounded=0;orthogonalLoop=1;jettySize=auto;html=1;" parent="Ki0xYYPNDZwyPiwaxu65-34" source="Ki0xYYPNDZwyPiwaxu65-126" target="Ki0xYYPNDZwyPiwaxu65-127" edge="1">
          <mxGeometry relative="1" as="geometry" />
        </mxCell>
        <mxCell id="Ki0xYYPNDZwyPiwaxu65-126" value="&lt;b&gt;Request Method&lt;/b&gt;" style="whiteSpace=wrap;html=1;strokeWidth=2;fillColor=#1ba1e2;fontColor=#ffffff;strokeColor=#006EAF;" parent="Ki0xYYPNDZwyPiwaxu65-34" vertex="1">
          <mxGeometry x="105" y="20" width="120" height="60" as="geometry" />
        </mxCell>
        <mxCell id="a3jmj70PFrFVS5s3Yc7b-68" style="edgeStyle=orthogonalEdgeStyle;rounded=0;orthogonalLoop=1;jettySize=auto;html=1;exitX=1;exitY=0.5;exitDx=0;exitDy=0;entryX=0;entryY=0.25;entryDx=0;entryDy=0;" parent="Ki0xYYPNDZwyPiwaxu65-34" source="Ki0xYYPNDZwyPiwaxu65-127" target="a3jmj70PFrFVS5s3Yc7b-67" edge="1">
          <mxGeometry relative="1" as="geometry" />
        </mxCell>
        <mxCell id="Ki0xYYPNDZwyPiwaxu65-127" value="&lt;b&gt;Request Integration&lt;/b&gt;" style="whiteSpace=wrap;html=1;strokeWidth=2;fillColor=#1ba1e2;fontColor=#ffffff;strokeColor=#006EAF;" parent="Ki0xYYPNDZwyPiwaxu65-34" vertex="1">
          <mxGeometry x="260" y="20" width="120" height="60" as="geometry" />
        </mxCell>
        <mxCell id="Ki0xYYPNDZwyPiwaxu65-205" value="" style="strokeWidth=2;html=1;shape=mxgraph.flowchart.start_2;whiteSpace=wrap;" parent="Ki0xYYPNDZwyPiwaxu65-34" vertex="1">
          <mxGeometry x="40" y="105" width="30" height="30" as="geometry" />
        </mxCell>
        <mxCell id="Ki0xYYPNDZwyPiwaxu65-206" value="&lt;b&gt;Response Method&lt;/b&gt;" style="whiteSpace=wrap;html=1;strokeWidth=2;fillColor=#1ba1e2;fontColor=#ffffff;strokeColor=#006EAF;" parent="Ki0xYYPNDZwyPiwaxu65-34" vertex="1">
          <mxGeometry x="105" y="90" width="120" height="60" as="geometry" />
        </mxCell>
        <mxCell id="Ki0xYYPNDZwyPiwaxu65-207" style="edgeStyle=orthogonalEdgeStyle;rounded=0;orthogonalLoop=1;jettySize=auto;html=1;exitX=0;exitY=0.5;exitDx=0;exitDy=0;entryX=1;entryY=0.5;entryDx=0;entryDy=0;" parent="Ki0xYYPNDZwyPiwaxu65-34" source="Ki0xYYPNDZwyPiwaxu65-208" target="Ki0xYYPNDZwyPiwaxu65-206" edge="1">
          <mxGeometry relative="1" as="geometry" />
        </mxCell>
        <mxCell id="Ki0xYYPNDZwyPiwaxu65-208" value="&lt;b&gt;Proxy Integration&lt;/b&gt;" style="whiteSpace=wrap;html=1;strokeWidth=2;fillColor=#1ba1e2;fontColor=#ffffff;strokeColor=#006EAF;" parent="Ki0xYYPNDZwyPiwaxu65-34" vertex="1">
          <mxGeometry x="260" y="90" width="120" height="60" as="geometry" />
        </mxCell>
        <mxCell id="Ki0xYYPNDZwyPiwaxu65-209" style="edgeStyle=orthogonalEdgeStyle;rounded=0;orthogonalLoop=1;jettySize=auto;html=1;exitX=0;exitY=0.5;exitDx=0;exitDy=0;entryX=1;entryY=0.5;entryDx=0;entryDy=0;entryPerimeter=0;" parent="Ki0xYYPNDZwyPiwaxu65-34" source="Ki0xYYPNDZwyPiwaxu65-206" target="Ki0xYYPNDZwyPiwaxu65-205" edge="1">
          <mxGeometry relative="1" as="geometry" />
        </mxCell>
        <mxCell id="a3jmj70PFrFVS5s3Yc7b-2" value="" style="ellipse;whiteSpace=wrap;html=1;aspect=fixed;strokeColor=none;fillColor=#FFFFFF;" parent="Ki0xYYPNDZwyPiwaxu65-34" vertex="1">
          <mxGeometry x="42.5" y="107.5" width="25" height="25" as="geometry" />
        </mxCell>
        <mxCell id="a3jmj70PFrFVS5s3Yc7b-69" style="edgeStyle=orthogonalEdgeStyle;rounded=0;orthogonalLoop=1;jettySize=auto;html=1;exitX=0;exitY=0.75;exitDx=0;exitDy=0;entryX=1;entryY=0.5;entryDx=0;entryDy=0;" parent="Ki0xYYPNDZwyPiwaxu65-34" source="a3jmj70PFrFVS5s3Yc7b-67" target="Ki0xYYPNDZwyPiwaxu65-208" edge="1">
          <mxGeometry relative="1" as="geometry" />
        </mxCell>
        <mxCell id="a3jmj70PFrFVS5s3Yc7b-67" value="&lt;font color=&quot;#ffffff&quot; style=&quot;font-size: 16px;&quot;&gt;&lt;b&gt;Lambda Integration&lt;/b&gt;&lt;/font&gt;&lt;div&gt;&lt;font color=&quot;#ffffff&quot; style=&quot;font-size: 16px;&quot;&gt;&lt;b&gt;(Generate Service)&lt;/b&gt;&lt;/font&gt;&lt;/div&gt;" style="whiteSpace=wrap;html=1;fillColor=#1ba1e2;strokeColor=#006EAF;fontColor=#ffffff;strokeWidth=2;" parent="Ki0xYYPNDZwyPiwaxu65-34" vertex="1">
          <mxGeometry x="438" y="12.5" width="120" height="135" as="geometry" />
        </mxCell>
        <mxCell id="Ki0xYYPNDZwyPiwaxu65-33" value="Analyse" style="swimlane;startSize=30;horizontal=0;html=1;fillColor=#60a917;strokeColor=#2D7600;fontColor=#ffffff;" parent="Ki0xYYPNDZwyPiwaxu65-32" vertex="1">
          <mxGeometry y="500" width="580" height="160" as="geometry">
            <mxRectangle y="20" width="530" height="30" as="alternateBounds" />
          </mxGeometry>
        </mxCell>
        <mxCell id="Ki0xYYPNDZwyPiwaxu65-110" value="" style="edgeStyle=orthogonalEdgeStyle;rounded=0;orthogonalLoop=1;jettySize=auto;html=1;" parent="Ki0xYYPNDZwyPiwaxu65-33" source="Ki0xYYPNDZwyPiwaxu65-107" target="Ki0xYYPNDZwyPiwaxu65-109" edge="1">
          <mxGeometry relative="1" as="geometry" />
        </mxCell>
        <mxCell id="Ki0xYYPNDZwyPiwaxu65-107" value="" style="strokeWidth=2;html=1;shape=mxgraph.flowchart.start_2;whiteSpace=wrap;" parent="Ki0xYYPNDZwyPiwaxu65-33" vertex="1">
          <mxGeometry x="40" y="35" width="30" height="30" as="geometry" />
        </mxCell>
        <mxCell id="Ki0xYYPNDZwyPiwaxu65-113" value="" style="edgeStyle=orthogonalEdgeStyle;rounded=0;orthogonalLoop=1;jettySize=auto;html=1;" parent="Ki0xYYPNDZwyPiwaxu65-33" source="Ki0xYYPNDZwyPiwaxu65-109" target="Ki0xYYPNDZwyPiwaxu65-112" edge="1">
          <mxGeometry relative="1" as="geometry" />
        </mxCell>
        <mxCell id="Ki0xYYPNDZwyPiwaxu65-109" value="&lt;b&gt;Request Method&lt;/b&gt;" style="whiteSpace=wrap;html=1;strokeWidth=2;fillColor=#60a917;fontColor=#ffffff;strokeColor=#2D7600;" parent="Ki0xYYPNDZwyPiwaxu65-33" vertex="1">
          <mxGeometry x="105" y="20" width="120" height="60" as="geometry" />
        </mxCell>
        <mxCell id="a3jmj70PFrFVS5s3Yc7b-71" style="edgeStyle=orthogonalEdgeStyle;rounded=0;orthogonalLoop=1;jettySize=auto;html=1;exitX=1;exitY=0.5;exitDx=0;exitDy=0;entryX=0;entryY=0.25;entryDx=0;entryDy=0;" parent="Ki0xYYPNDZwyPiwaxu65-33" source="Ki0xYYPNDZwyPiwaxu65-112" target="a3jmj70PFrFVS5s3Yc7b-70" edge="1">
          <mxGeometry relative="1" as="geometry" />
        </mxCell>
        <mxCell id="Ki0xYYPNDZwyPiwaxu65-112" value="&lt;b&gt;Request Integration&lt;/b&gt;" style="whiteSpace=wrap;html=1;strokeWidth=2;fillColor=#60a917;fontColor=#ffffff;strokeColor=#2D7600;" parent="Ki0xYYPNDZwyPiwaxu65-33" vertex="1">
          <mxGeometry x="260" y="20" width="120" height="60" as="geometry" />
        </mxCell>
        <mxCell id="Ki0xYYPNDZwyPiwaxu65-199" value="" style="strokeWidth=2;html=1;shape=mxgraph.flowchart.start_2;whiteSpace=wrap;" parent="Ki0xYYPNDZwyPiwaxu65-33" vertex="1">
          <mxGeometry x="40" y="105" width="30" height="30" as="geometry" />
        </mxCell>
        <mxCell id="Ki0xYYPNDZwyPiwaxu65-201" value="&lt;b&gt;Response Method&lt;/b&gt;" style="whiteSpace=wrap;html=1;strokeWidth=2;fillColor=#60a917;fontColor=#ffffff;strokeColor=#2D7600;" parent="Ki0xYYPNDZwyPiwaxu65-33" vertex="1">
          <mxGeometry x="105" y="90" width="120" height="60" as="geometry" />
        </mxCell>
        <mxCell id="Ki0xYYPNDZwyPiwaxu65-203" style="edgeStyle=orthogonalEdgeStyle;rounded=0;orthogonalLoop=1;jettySize=auto;html=1;exitX=0;exitY=0.5;exitDx=0;exitDy=0;entryX=1;entryY=0.5;entryDx=0;entryDy=0;" parent="Ki0xYYPNDZwyPiwaxu65-33" source="Ki0xYYPNDZwyPiwaxu65-202" target="Ki0xYYPNDZwyPiwaxu65-201" edge="1">
          <mxGeometry relative="1" as="geometry" />
        </mxCell>
        <mxCell id="Ki0xYYPNDZwyPiwaxu65-202" value="&lt;b&gt;Proxy Integration&lt;/b&gt;" style="whiteSpace=wrap;html=1;strokeWidth=2;fillColor=#60a917;fontColor=#ffffff;strokeColor=#2D7600;" parent="Ki0xYYPNDZwyPiwaxu65-33" vertex="1">
          <mxGeometry x="260" y="90" width="120" height="60" as="geometry" />
        </mxCell>
        <mxCell id="Ki0xYYPNDZwyPiwaxu65-204" style="edgeStyle=orthogonalEdgeStyle;rounded=0;orthogonalLoop=1;jettySize=auto;html=1;exitX=0;exitY=0.5;exitDx=0;exitDy=0;entryX=1;entryY=0.5;entryDx=0;entryDy=0;entryPerimeter=0;" parent="Ki0xYYPNDZwyPiwaxu65-33" source="Ki0xYYPNDZwyPiwaxu65-201" target="Ki0xYYPNDZwyPiwaxu65-199" edge="1">
          <mxGeometry relative="1" as="geometry" />
        </mxCell>
        <mxCell id="a3jmj70PFrFVS5s3Yc7b-1" value="" style="ellipse;whiteSpace=wrap;html=1;aspect=fixed;strokeColor=none;fillColor=#FFFFFF;" parent="Ki0xYYPNDZwyPiwaxu65-33" vertex="1">
          <mxGeometry x="42.5" y="107.5" width="25" height="25" as="geometry" />
        </mxCell>
        <mxCell id="a3jmj70PFrFVS5s3Yc7b-72" style="edgeStyle=orthogonalEdgeStyle;rounded=0;orthogonalLoop=1;jettySize=auto;html=1;exitX=0;exitY=0.75;exitDx=0;exitDy=0;entryX=1;entryY=0.5;entryDx=0;entryDy=0;" parent="Ki0xYYPNDZwyPiwaxu65-33" source="a3jmj70PFrFVS5s3Yc7b-70" target="Ki0xYYPNDZwyPiwaxu65-202" edge="1">
          <mxGeometry relative="1" as="geometry" />
        </mxCell>
        <mxCell id="a3jmj70PFrFVS5s3Yc7b-70" value="&lt;font color=&quot;#ffffff&quot; style=&quot;font-size: 16px;&quot;&gt;&lt;b&gt;Lambda Integration&lt;/b&gt;&lt;/font&gt;&lt;div&gt;&lt;font color=&quot;#ffffff&quot; style=&quot;font-size: 16px;&quot;&gt;&lt;b&gt;(Analyze Service)&lt;/b&gt;&lt;/font&gt;&lt;/div&gt;" style="whiteSpace=wrap;html=1;fillColor=#60a917;strokeColor=#2D7600;fontColor=#ffffff;strokeWidth=2;" parent="Ki0xYYPNDZwyPiwaxu65-33" vertex="1">
          <mxGeometry x="438" y="12.5" width="120" height="135" as="geometry" />
        </mxCell>
        <mxCell id="Ki0xYYPNDZwyPiwaxu65-319" value="" style="whiteSpace=wrap;html=1;aspect=fixed;" parent="1" vertex="1">
          <mxGeometry x="1360" y="50" width="100" height="100" as="geometry" />
        </mxCell>
        <mxCell id="Ki0xYYPNDZwyPiwaxu65-320" value="" style="ellipse;whiteSpace=wrap;html=1;aspect=fixed;fillColor=#1ba1e2;fontColor=#ffffff;strokeColor=#006EAF;" parent="1" vertex="1">
          <mxGeometry x="1380" y="60" width="20" height="20" as="geometry" />
        </mxCell>
        <mxCell id="Ki0xYYPNDZwyPiwaxu65-322" value="&lt;b&gt;&lt;font style=&quot;font-size: 10px;&quot;&gt;GET&lt;/font&gt;&lt;/b&gt;" style="text;html=1;align=center;verticalAlign=middle;whiteSpace=wrap;rounded=0;" parent="1" vertex="1">
          <mxGeometry x="1410" y="60" width="30" height="20" as="geometry" />
        </mxCell>
        <mxCell id="Ki0xYYPNDZwyPiwaxu65-323" value="" style="ellipse;whiteSpace=wrap;html=1;aspect=fixed;fillColor=#60a917;fontColor=#ffffff;strokeColor=#2D7600;" parent="1" vertex="1">
          <mxGeometry x="1380" y="90" width="20" height="20" as="geometry" />
        </mxCell>
        <mxCell id="Ki0xYYPNDZwyPiwaxu65-324" value="&lt;b&gt;&lt;font style=&quot;font-size: 10px;&quot;&gt;POST&lt;/font&gt;&lt;/b&gt;" style="text;html=1;align=center;verticalAlign=middle;whiteSpace=wrap;rounded=0;" parent="1" vertex="1">
          <mxGeometry x="1410" y="90" width="30" height="20" as="geometry" />
        </mxCell>
        <mxCell id="Ki0xYYPNDZwyPiwaxu65-325" value="" style="ellipse;whiteSpace=wrap;html=1;aspect=fixed;fillColor=#fa6800;fontColor=#000000;strokeColor=#C73500;" parent="1" vertex="1">
          <mxGeometry x="1380" y="120" width="20" height="20" as="geometry" />
        </mxCell>
        <mxCell id="Ki0xYYPNDZwyPiwaxu65-326" value="&lt;b&gt;&lt;font style=&quot;font-size: 10px;&quot;&gt;PUT&lt;/font&gt;&lt;/b&gt;" style="text;html=1;align=center;verticalAlign=middle;whiteSpace=wrap;rounded=0;" parent="1" vertex="1">
          <mxGeometry x="1410" y="120" width="30" height="20" as="geometry" />
        </mxCell>
        <mxCell id="Ki0xYYPNDZwyPiwaxu65-360" value="" style="endArrow=classic;html=1;rounded=0;" parent="1" edge="1">
          <mxGeometry relative="1" as="geometry">
            <mxPoint x="1280" y="439.63" as="sourcePoint" />
            <mxPoint x="1440" y="439.63" as="targetPoint" />
          </mxGeometry>
        </mxCell>
        <mxCell id="Ki0xYYPNDZwyPiwaxu65-361" value="Request" style="edgeLabel;resizable=0;html=1;;align=center;verticalAlign=middle;" parent="Ki0xYYPNDZwyPiwaxu65-360" connectable="0" vertex="1">
          <mxGeometry relative="1" as="geometry" />
        </mxCell>
        <mxCell id="Ki0xYYPNDZwyPiwaxu65-362" value="Client" style="edgeLabel;resizable=0;html=1;;align=left;verticalAlign=bottom;" parent="Ki0xYYPNDZwyPiwaxu65-360" connectable="0" vertex="1">
          <mxGeometry x="-1" relative="1" as="geometry" />
        </mxCell>
        <mxCell id="Ki0xYYPNDZwyPiwaxu65-363" value="API" style="edgeLabel;resizable=0;html=1;;align=right;verticalAlign=bottom;" parent="Ki0xYYPNDZwyPiwaxu65-360" connectable="0" vertex="1">
          <mxGeometry x="1" relative="1" as="geometry">
            <mxPoint y="-5" as="offset" />
          </mxGeometry>
        </mxCell>
        <mxCell id="Ki0xYYPNDZwyPiwaxu65-364" value="" style="endArrow=classic;html=1;rounded=0;" parent="1" edge="1">
          <mxGeometry relative="1" as="geometry">
            <mxPoint x="1440" y="469.63" as="sourcePoint" />
            <mxPoint x="1280" y="469.63" as="targetPoint" />
          </mxGeometry>
        </mxCell>
        <mxCell id="Ki0xYYPNDZwyPiwaxu65-365" value="Response" style="edgeLabel;resizable=0;html=1;;align=center;verticalAlign=middle;" parent="Ki0xYYPNDZwyPiwaxu65-364" connectable="0" vertex="1">
          <mxGeometry relative="1" as="geometry" />
        </mxCell>
        <mxCell id="Ki0xYYPNDZwyPiwaxu65-366" value="API" style="edgeLabel;resizable=0;html=1;;align=left;verticalAlign=bottom;" parent="Ki0xYYPNDZwyPiwaxu65-364" connectable="0" vertex="1">
          <mxGeometry x="-1" relative="1" as="geometry">
            <mxPoint x="-20" as="offset" />
          </mxGeometry>
        </mxCell>
        <mxCell id="Ki0xYYPNDZwyPiwaxu65-367" value="Client" style="edgeLabel;resizable=0;html=1;;align=right;verticalAlign=bottom;" parent="Ki0xYYPNDZwyPiwaxu65-364" connectable="0" vertex="1">
          <mxGeometry x="1" relative="1" as="geometry">
            <mxPoint x="30" y="20" as="offset" />
          </mxGeometry>
        </mxCell>
        <mxCell id="a3jmj70PFrFVS5s3Yc7b-73" value="AWS Lambda&amp;nbsp;" style="swimlane;whiteSpace=wrap;html=1;" parent="1" vertex="1">
          <mxGeometry x="2335" y="50" width="1800" height="2190" as="geometry" />
        </mxCell>
        <mxCell id="a3jmj70PFrFVS5s3Yc7b-74" value="Functions" style="swimlane;whiteSpace=wrap;html=1;" parent="a3jmj70PFrFVS5s3Yc7b-73" vertex="1">
          <mxGeometry x="20" y="50" width="1760" height="2130" as="geometry" />
        </mxCell>
        <mxCell id="a3jmj70PFrFVS5s3Yc7b-75" value="Analyze Password Service" style="swimlane;horizontal=0;whiteSpace=wrap;html=1;" parent="a3jmj70PFrFVS5s3Yc7b-74" vertex="1">
          <mxGeometry x="20" y="1590" width="1720" height="521.25" as="geometry" />
        </mxCell>
        <mxCell id="Ki0xYYPNDZwyPiwaxu65-75" style="edgeStyle=orthogonalEdgeStyle;rounded=0;orthogonalLoop=1;jettySize=auto;html=1;exitX=1;exitY=0.5;exitDx=0;exitDy=0;entryX=0;entryY=0.5;entryDx=0;entryDy=0;exitPerimeter=0;" parent="a3jmj70PFrFVS5s3Yc7b-75" source="Ki0xYYPNDZwyPiwaxu65-91" target="Ki0xYYPNDZwyPiwaxu65-77" edge="1">
          <mxGeometry relative="1" as="geometry">
            <mxPoint x="290" y="230" as="sourcePoint" />
          </mxGeometry>
        </mxCell>
        <mxCell id="Ki0xYYPNDZwyPiwaxu65-76" value="" style="edgeStyle=orthogonalEdgeStyle;rounded=0;orthogonalLoop=1;jettySize=auto;html=1;" parent="a3jmj70PFrFVS5s3Yc7b-75" source="Ki0xYYPNDZwyPiwaxu65-77" target="Ki0xYYPNDZwyPiwaxu65-82" edge="1">
          <mxGeometry relative="1" as="geometry" />
        </mxCell>
        <mxCell id="Ki0xYYPNDZwyPiwaxu65-77" value="&lt;b&gt;&lt;font color=&quot;#000000&quot;&gt;Verify Password in List&lt;/font&gt;&lt;/b&gt;" style="rounded=0;whiteSpace=wrap;html=1;fillColor=#cce5ff;strokeColor=#36393d;" parent="a3jmj70PFrFVS5s3Yc7b-75" vertex="1">
          <mxGeometry x="185" y="240" width="125" height="60" as="geometry" />
        </mxCell>
        <mxCell id="Ki0xYYPNDZwyPiwaxu65-78" value="&lt;div style=&quot;&quot;&gt;&lt;span style=&quot;background-color: initial;&quot;&gt;&lt;b&gt;&lt;font style=&quot;font-size: 12px;&quot;&gt;Compare with 200 most used passwords in 2024&lt;/font&gt;&lt;/b&gt;&lt;/span&gt;&lt;/div&gt;" style="shape=note;whiteSpace=wrap;html=1;backgroundOutline=1;darkOpacity=0.05;align=left;" parent="a3jmj70PFrFVS5s3Yc7b-75" vertex="1">
          <mxGeometry x="200" y="40" width="100" height="130" as="geometry" />
        </mxCell>
        <mxCell id="Ki0xYYPNDZwyPiwaxu65-79" style="edgeStyle=orthogonalEdgeStyle;rounded=0;orthogonalLoop=1;jettySize=auto;html=1;exitX=0.5;exitY=0;exitDx=0;exitDy=0;entryX=0.5;entryY=1;entryDx=0;entryDy=0;entryPerimeter=0;" parent="a3jmj70PFrFVS5s3Yc7b-75" source="Ki0xYYPNDZwyPiwaxu65-77" target="Ki0xYYPNDZwyPiwaxu65-78" edge="1">
          <mxGeometry relative="1" as="geometry" />
        </mxCell>
        <mxCell id="Ki0xYYPNDZwyPiwaxu65-80" style="edgeStyle=orthogonalEdgeStyle;rounded=0;orthogonalLoop=1;jettySize=auto;html=1;entryX=1;entryY=0.5;entryDx=0;entryDy=0;" parent="a3jmj70PFrFVS5s3Yc7b-75" source="Ki0xYYPNDZwyPiwaxu65-82" target="Ki0xYYPNDZwyPiwaxu65-83" edge="1">
          <mxGeometry relative="1" as="geometry">
            <Array as="points">
              <mxPoint x="414" y="320" />
              <mxPoint x="414" y="360" />
            </Array>
          </mxGeometry>
        </mxCell>
        <mxCell id="a3jmj70PFrFVS5s3Yc7b-9" value="Yes" style="edgeLabel;html=1;align=center;verticalAlign=middle;resizable=0;points=[];" parent="Ki0xYYPNDZwyPiwaxu65-80" vertex="1" connectable="0">
          <mxGeometry x="-0.4494" y="-1" relative="1" as="geometry">
            <mxPoint x="1" y="-14" as="offset" />
          </mxGeometry>
        </mxCell>
        <mxCell id="Ki0xYYPNDZwyPiwaxu65-81" value="" style="edgeStyle=orthogonalEdgeStyle;rounded=0;orthogonalLoop=1;jettySize=auto;html=1;" parent="a3jmj70PFrFVS5s3Yc7b-75" source="Ki0xYYPNDZwyPiwaxu65-82" target="Ki0xYYPNDZwyPiwaxu65-86" edge="1">
          <mxGeometry relative="1" as="geometry" />
        </mxCell>
        <mxCell id="a3jmj70PFrFVS5s3Yc7b-10" value="No" style="edgeLabel;html=1;align=center;verticalAlign=middle;resizable=0;points=[];" parent="Ki0xYYPNDZwyPiwaxu65-81" vertex="1" connectable="0">
          <mxGeometry x="-0.1269" relative="1" as="geometry">
            <mxPoint as="offset" />
          </mxGeometry>
        </mxCell>
        <mxCell id="Ki0xYYPNDZwyPiwaxu65-82" value="&lt;b&gt;Match?&lt;/b&gt;" style="rhombus;whiteSpace=wrap;html=1;rounded=0;" parent="a3jmj70PFrFVS5s3Yc7b-75" vertex="1">
          <mxGeometry x="373.5" y="230" width="80" height="80" as="geometry" />
        </mxCell>
        <mxCell id="a3jmj70PFrFVS5s3Yc7b-130" style="edgeStyle=orthogonalEdgeStyle;rounded=0;orthogonalLoop=1;jettySize=auto;html=1;exitX=0;exitY=0.5;exitDx=0;exitDy=0;entryX=1;entryY=0.5;entryDx=0;entryDy=0;" parent="a3jmj70PFrFVS5s3Yc7b-75" source="Ki0xYYPNDZwyPiwaxu65-83" target="a3jmj70PFrFVS5s3Yc7b-128" edge="1">
          <mxGeometry relative="1" as="geometry" />
        </mxCell>
        <mxCell id="Ki0xYYPNDZwyPiwaxu65-83" value="&lt;b&gt;Error (400)&lt;/b&gt;" style="whiteSpace=wrap;html=1;rounded=0;fillColor=#FF0000;strokeColor=#6F0000;fontColor=#ffffff;" parent="a3jmj70PFrFVS5s3Yc7b-75" vertex="1">
          <mxGeometry x="185" y="330" width="140" height="60" as="geometry" />
        </mxCell>
        <mxCell id="Ki0xYYPNDZwyPiwaxu65-85" style="edgeStyle=orthogonalEdgeStyle;rounded=0;orthogonalLoop=1;jettySize=auto;html=1;entryX=0;entryY=0.5;entryDx=0;entryDy=0;" parent="a3jmj70PFrFVS5s3Yc7b-75" source="Ki0xYYPNDZwyPiwaxu65-86" target="Ki0xYYPNDZwyPiwaxu65-89" edge="1">
          <mxGeometry relative="1" as="geometry" />
        </mxCell>
        <mxCell id="Ki0xYYPNDZwyPiwaxu65-86" value="&lt;b&gt;&lt;font color=&quot;#000000&quot;&gt;Verify Password Length&lt;/font&gt;&lt;/b&gt;" style="whiteSpace=wrap;html=1;rounded=0;fillColor=#cce5ff;strokeColor=#36393d;" parent="a3jmj70PFrFVS5s3Yc7b-75" vertex="1">
          <mxGeometry x="525" y="240" width="130" height="60" as="geometry" />
        </mxCell>
        <mxCell id="Ki0xYYPNDZwyPiwaxu65-87" style="edgeStyle=orthogonalEdgeStyle;rounded=0;orthogonalLoop=1;jettySize=auto;html=1;exitX=0.5;exitY=1;exitDx=0;exitDy=0;entryX=1;entryY=0.5;entryDx=0;entryDy=0;" parent="a3jmj70PFrFVS5s3Yc7b-75" source="Ki0xYYPNDZwyPiwaxu65-89" target="Ki0xYYPNDZwyPiwaxu65-83" edge="1">
          <mxGeometry relative="1" as="geometry" />
        </mxCell>
        <mxCell id="a3jmj70PFrFVS5s3Yc7b-12" value="No" style="edgeLabel;html=1;align=center;verticalAlign=middle;resizable=0;points=[];" parent="Ki0xYYPNDZwyPiwaxu65-87" vertex="1" connectable="0">
          <mxGeometry x="-0.8988" relative="1" as="geometry">
            <mxPoint as="offset" />
          </mxGeometry>
        </mxCell>
        <mxCell id="Ki0xYYPNDZwyPiwaxu65-88" value="" style="edgeStyle=orthogonalEdgeStyle;rounded=0;orthogonalLoop=1;jettySize=auto;html=1;" parent="a3jmj70PFrFVS5s3Yc7b-75" source="Ki0xYYPNDZwyPiwaxu65-89" target="Ki0xYYPNDZwyPiwaxu65-93" edge="1">
          <mxGeometry relative="1" as="geometry" />
        </mxCell>
        <mxCell id="a3jmj70PFrFVS5s3Yc7b-11" value="Yes" style="edgeLabel;html=1;align=center;verticalAlign=middle;resizable=0;points=[];" parent="Ki0xYYPNDZwyPiwaxu65-88" vertex="1" connectable="0">
          <mxGeometry x="-0.5095" y="1" relative="1" as="geometry">
            <mxPoint x="10" y="1" as="offset" />
          </mxGeometry>
        </mxCell>
        <mxCell id="Ki0xYYPNDZwyPiwaxu65-89" value="&lt;b&gt;&amp;gt;= 8?&lt;/b&gt;" style="rhombus;whiteSpace=wrap;html=1;rounded=0;" parent="a3jmj70PFrFVS5s3Yc7b-75" vertex="1">
          <mxGeometry x="710" y="230" width="80" height="80" as="geometry" />
        </mxCell>
        <mxCell id="Ki0xYYPNDZwyPiwaxu65-91" value="" style="strokeWidth=2;html=1;shape=mxgraph.flowchart.start_2;whiteSpace=wrap;" parent="a3jmj70PFrFVS5s3Yc7b-75" vertex="1">
          <mxGeometry x="90" y="245" width="50" height="50" as="geometry" />
        </mxCell>
        <mxCell id="Ki0xYYPNDZwyPiwaxu65-92" style="edgeStyle=orthogonalEdgeStyle;rounded=0;orthogonalLoop=1;jettySize=auto;html=1;entryX=0;entryY=0.5;entryDx=0;entryDy=0;" parent="a3jmj70PFrFVS5s3Yc7b-75" source="Ki0xYYPNDZwyPiwaxu65-93" target="Ki0xYYPNDZwyPiwaxu65-96" edge="1">
          <mxGeometry relative="1" as="geometry" />
        </mxCell>
        <mxCell id="Ki0xYYPNDZwyPiwaxu65-93" value="&lt;font color=&quot;#000000&quot;&gt;Verify Password Struct&lt;/font&gt;" style="whiteSpace=wrap;html=1;rounded=0;fontStyle=1;fillColor=#cce5ff;strokeColor=#36393d;" parent="a3jmj70PFrFVS5s3Yc7b-75" vertex="1">
          <mxGeometry x="850" y="240" width="113" height="60" as="geometry" />
        </mxCell>
        <mxCell id="Ki0xYYPNDZwyPiwaxu65-94" style="edgeStyle=orthogonalEdgeStyle;rounded=0;orthogonalLoop=1;jettySize=auto;html=1;exitX=0.5;exitY=1;exitDx=0;exitDy=0;entryX=1;entryY=0.5;entryDx=0;entryDy=0;" parent="a3jmj70PFrFVS5s3Yc7b-75" source="Ki0xYYPNDZwyPiwaxu65-96" target="Ki0xYYPNDZwyPiwaxu65-83" edge="1">
          <mxGeometry relative="1" as="geometry" />
        </mxCell>
        <mxCell id="a3jmj70PFrFVS5s3Yc7b-13" value="Yes" style="edgeLabel;html=1;align=center;verticalAlign=middle;resizable=0;points=[];" parent="Ki0xYYPNDZwyPiwaxu65-94" vertex="1" connectable="0">
          <mxGeometry x="-0.9162" relative="1" as="geometry">
            <mxPoint y="-17" as="offset" />
          </mxGeometry>
        </mxCell>
        <mxCell id="Ki0xYYPNDZwyPiwaxu65-95" value="" style="edgeStyle=orthogonalEdgeStyle;rounded=0;orthogonalLoop=1;jettySize=auto;html=1;" parent="a3jmj70PFrFVS5s3Yc7b-75" source="Ki0xYYPNDZwyPiwaxu65-96" target="Ki0xYYPNDZwyPiwaxu65-100" edge="1">
          <mxGeometry relative="1" as="geometry" />
        </mxCell>
        <mxCell id="a3jmj70PFrFVS5s3Yc7b-14" value="No" style="edgeLabel;html=1;align=center;verticalAlign=middle;resizable=0;points=[];" parent="Ki0xYYPNDZwyPiwaxu65-95" vertex="1" connectable="0">
          <mxGeometry x="-0.2032" y="2" relative="1" as="geometry">
            <mxPoint as="offset" />
          </mxGeometry>
        </mxCell>
        <mxCell id="Ki0xYYPNDZwyPiwaxu65-96" value="&lt;b&gt;Has White Space?&lt;/b&gt;" style="rhombus;whiteSpace=wrap;html=1;rounded=0;" parent="a3jmj70PFrFVS5s3Yc7b-75" vertex="1">
          <mxGeometry x="1010" y="220" width="100" height="100" as="geometry" />
        </mxCell>
        <mxCell id="Ki0xYYPNDZwyPiwaxu65-97" value="&lt;div style=&quot;&quot;&gt;&lt;span style=&quot;background-color: initial;&quot;&gt;&lt;b&gt;&lt;font style=&quot;font-size: 12px;&quot;&gt;Increase Score based on complexity requirements&lt;/font&gt;&lt;/b&gt;&lt;/span&gt;&lt;/div&gt;" style="shape=note;whiteSpace=wrap;html=1;backgroundOutline=1;darkOpacity=0.05;align=left;" parent="a3jmj70PFrFVS5s3Yc7b-75" vertex="1">
          <mxGeometry x="820" y="60" width="100" height="130" as="geometry" />
        </mxCell>
        <mxCell id="Ki0xYYPNDZwyPiwaxu65-98" style="edgeStyle=orthogonalEdgeStyle;rounded=0;orthogonalLoop=1;jettySize=auto;html=1;exitX=0.5;exitY=0;exitDx=0;exitDy=0;entryX=0.5;entryY=1;entryDx=0;entryDy=0;entryPerimeter=0;" parent="a3jmj70PFrFVS5s3Yc7b-75" source="Ki0xYYPNDZwyPiwaxu65-93" target="Ki0xYYPNDZwyPiwaxu65-97" edge="1">
          <mxGeometry relative="1" as="geometry" />
        </mxCell>
        <mxCell id="a3jmj70PFrFVS5s3Yc7b-78" value="" style="edgeStyle=orthogonalEdgeStyle;rounded=0;orthogonalLoop=1;jettySize=auto;html=1;" parent="a3jmj70PFrFVS5s3Yc7b-75" source="Ki0xYYPNDZwyPiwaxu65-100" target="a3jmj70PFrFVS5s3Yc7b-77" edge="1">
          <mxGeometry relative="1" as="geometry" />
        </mxCell>
        <mxCell id="Ki0xYYPNDZwyPiwaxu65-100" value="&lt;b&gt;&lt;font color=&quot;#000000&quot;&gt;Calculate Password Strength&lt;/font&gt;&lt;/b&gt;" style="whiteSpace=wrap;html=1;rounded=0;fillColor=#cce5ff;strokeColor=#36393d;" parent="a3jmj70PFrFVS5s3Yc7b-75" vertex="1">
          <mxGeometry x="1181" y="240" width="150" height="60" as="geometry" />
        </mxCell>
        <mxCell id="a3jmj70PFrFVS5s3Yc7b-79" style="edgeStyle=orthogonalEdgeStyle;rounded=0;orthogonalLoop=1;jettySize=auto;html=1;exitX=0.5;exitY=1;exitDx=0;exitDy=0;entryX=1;entryY=0.5;entryDx=0;entryDy=0;" parent="a3jmj70PFrFVS5s3Yc7b-75" source="a3jmj70PFrFVS5s3Yc7b-77" target="Ki0xYYPNDZwyPiwaxu65-83" edge="1">
          <mxGeometry relative="1" as="geometry" />
        </mxCell>
        <mxCell id="a3jmj70PFrFVS5s3Yc7b-80" value="Yes" style="edgeLabel;html=1;align=center;verticalAlign=middle;resizable=0;points=[];" parent="a3jmj70PFrFVS5s3Yc7b-79" vertex="1" connectable="0">
          <mxGeometry x="-0.9704" relative="1" as="geometry">
            <mxPoint as="offset" />
          </mxGeometry>
        </mxCell>
        <mxCell id="a3jmj70PFrFVS5s3Yc7b-82" value="" style="edgeStyle=orthogonalEdgeStyle;rounded=0;orthogonalLoop=1;jettySize=auto;html=1;entryX=1;entryY=0.5;entryDx=0;entryDy=0;exitX=1;exitY=0.5;exitDx=0;exitDy=0;" parent="a3jmj70PFrFVS5s3Yc7b-75" source="a3jmj70PFrFVS5s3Yc7b-77" target="a3jmj70PFrFVS5s3Yc7b-81" edge="1">
          <mxGeometry relative="1" as="geometry">
            <Array as="points">
              <mxPoint x="1570" y="270" />
              <mxPoint x="1570" y="467" />
            </Array>
          </mxGeometry>
        </mxCell>
        <mxCell id="a3jmj70PFrFVS5s3Yc7b-83" value="No" style="edgeLabel;html=1;align=center;verticalAlign=middle;resizable=0;points=[];" parent="a3jmj70PFrFVS5s3Yc7b-82" vertex="1" connectable="0">
          <mxGeometry x="-0.3358" y="3" relative="1" as="geometry">
            <mxPoint x="191" y="-199" as="offset" />
          </mxGeometry>
        </mxCell>
        <mxCell id="a3jmj70PFrFVS5s3Yc7b-77" value="&lt;b&gt;Weak Password?&lt;/b&gt;" style="rhombus;whiteSpace=wrap;html=1;rounded=0;" parent="a3jmj70PFrFVS5s3Yc7b-75" vertex="1">
          <mxGeometry x="1400" y="215" width="94" height="110" as="geometry" />
        </mxCell>
        <mxCell id="a3jmj70PFrFVS5s3Yc7b-131" style="edgeStyle=orthogonalEdgeStyle;rounded=0;orthogonalLoop=1;jettySize=auto;html=1;exitX=0;exitY=0.5;exitDx=0;exitDy=0;entryX=1;entryY=0.5;entryDx=0;entryDy=0;" parent="a3jmj70PFrFVS5s3Yc7b-75" source="a3jmj70PFrFVS5s3Yc7b-81" target="a3jmj70PFrFVS5s3Yc7b-128" edge="1">
          <mxGeometry relative="1" as="geometry" />
        </mxCell>
        <mxCell id="a3jmj70PFrFVS5s3Yc7b-81" value="&lt;b&gt;Success (200)&lt;/b&gt;" style="whiteSpace=wrap;html=1;rounded=0;fillColor=#008a00;fontColor=#ffffff;strokeColor=#005700;" parent="a3jmj70PFrFVS5s3Yc7b-75" vertex="1">
          <mxGeometry x="185" y="436.5" width="140" height="60" as="geometry" />
        </mxCell>
        <mxCell id="a3jmj70PFrFVS5s3Yc7b-128" value="" style="ellipse;whiteSpace=wrap;html=1;aspect=fixed;" parent="a3jmj70PFrFVS5s3Yc7b-75" vertex="1">
          <mxGeometry x="90" y="386.5" width="50" height="50" as="geometry" />
        </mxCell>
        <mxCell id="a3jmj70PFrFVS5s3Yc7b-129" value="" style="ellipse;whiteSpace=wrap;html=1;aspect=fixed;fillColor=#FFFFFF;" parent="a3jmj70PFrFVS5s3Yc7b-75" vertex="1">
          <mxGeometry x="93.75" y="390.25" width="42.5" height="42.5" as="geometry" />
        </mxCell>
        <mxCell id="a3jmj70PFrFVS5s3Yc7b-132" value="Generate Password Service" style="swimlane;horizontal=0;whiteSpace=wrap;html=1;" parent="a3jmj70PFrFVS5s3Yc7b-74" vertex="1">
          <mxGeometry x="20" y="1020" width="1720" height="546.25" as="geometry" />
        </mxCell>
        <mxCell id="a3jmj70PFrFVS5s3Yc7b-135" value="" style="edgeStyle=orthogonalEdgeStyle;rounded=0;orthogonalLoop=1;jettySize=auto;html=1;" parent="a3jmj70PFrFVS5s3Yc7b-132" source="a3jmj70PFrFVS5s3Yc7b-133" target="a3jmj70PFrFVS5s3Yc7b-134" edge="1">
          <mxGeometry relative="1" as="geometry" />
        </mxCell>
        <mxCell id="a3jmj70PFrFVS5s3Yc7b-133" value="" style="strokeWidth=2;html=1;shape=mxgraph.flowchart.start_2;whiteSpace=wrap;" parent="a3jmj70PFrFVS5s3Yc7b-132" vertex="1">
          <mxGeometry x="70" y="260.62" width="50" height="50" as="geometry" />
        </mxCell>
        <mxCell id="a3jmj70PFrFVS5s3Yc7b-137" value="" style="edgeStyle=orthogonalEdgeStyle;rounded=0;orthogonalLoop=1;jettySize=auto;html=1;" parent="a3jmj70PFrFVS5s3Yc7b-132" source="a3jmj70PFrFVS5s3Yc7b-134" target="a3jmj70PFrFVS5s3Yc7b-136" edge="1">
          <mxGeometry relative="1" as="geometry" />
        </mxCell>
        <mxCell id="a3jmj70PFrFVS5s3Yc7b-134" value="&lt;font color=&quot;#000000&quot;&gt;&lt;b&gt;Evaluate Complexity&lt;/b&gt;&lt;/font&gt;" style="whiteSpace=wrap;html=1;strokeWidth=2;fillColor=#cce5ff;strokeColor=#36393d;" parent="a3jmj70PFrFVS5s3Yc7b-132" vertex="1">
          <mxGeometry x="165" y="255.62" width="145" height="60" as="geometry" />
        </mxCell>
        <mxCell id="a3jmj70PFrFVS5s3Yc7b-139" style="edgeStyle=orthogonalEdgeStyle;rounded=0;orthogonalLoop=1;jettySize=auto;html=1;exitX=0.5;exitY=1;exitDx=0;exitDy=0;entryX=1;entryY=0.5;entryDx=0;entryDy=0;" parent="a3jmj70PFrFVS5s3Yc7b-132" source="a3jmj70PFrFVS5s3Yc7b-136" target="a3jmj70PFrFVS5s3Yc7b-138" edge="1">
          <mxGeometry relative="1" as="geometry" />
        </mxCell>
        <mxCell id="a3jmj70PFrFVS5s3Yc7b-140" value="No" style="edgeLabel;html=1;align=center;verticalAlign=middle;resizable=0;points=[];" parent="a3jmj70PFrFVS5s3Yc7b-139" vertex="1" connectable="0">
          <mxGeometry x="-0.5895" y="1" relative="1" as="geometry">
            <mxPoint x="-1" y="-11" as="offset" />
          </mxGeometry>
        </mxCell>
        <mxCell id="a3jmj70PFrFVS5s3Yc7b-144" value="" style="edgeStyle=orthogonalEdgeStyle;rounded=0;orthogonalLoop=1;jettySize=auto;html=1;" parent="a3jmj70PFrFVS5s3Yc7b-132" source="a3jmj70PFrFVS5s3Yc7b-136" target="a3jmj70PFrFVS5s3Yc7b-143" edge="1">
          <mxGeometry relative="1" as="geometry" />
        </mxCell>
        <mxCell id="a3jmj70PFrFVS5s3Yc7b-151" value="Yes" style="edgeLabel;html=1;align=center;verticalAlign=middle;resizable=0;points=[];" parent="a3jmj70PFrFVS5s3Yc7b-144" vertex="1" connectable="0">
          <mxGeometry x="-0.0015" relative="1" as="geometry">
            <mxPoint as="offset" />
          </mxGeometry>
        </mxCell>
        <mxCell id="a3jmj70PFrFVS5s3Yc7b-136" value="&lt;b&gt;length &amp;gt; 8?&lt;/b&gt;" style="rhombus;whiteSpace=wrap;html=1;strokeWidth=2;" parent="a3jmj70PFrFVS5s3Yc7b-132" vertex="1">
          <mxGeometry x="422.5" y="245.62" width="80" height="80" as="geometry" />
        </mxCell>
        <mxCell id="a3jmj70PFrFVS5s3Yc7b-187" style="edgeStyle=orthogonalEdgeStyle;rounded=0;orthogonalLoop=1;jettySize=auto;html=1;exitX=0;exitY=0.5;exitDx=0;exitDy=0;entryX=1;entryY=0.5;entryDx=0;entryDy=0;" parent="a3jmj70PFrFVS5s3Yc7b-132" source="a3jmj70PFrFVS5s3Yc7b-138" target="a3jmj70PFrFVS5s3Yc7b-183" edge="1">
          <mxGeometry relative="1" as="geometry" />
        </mxCell>
        <mxCell id="a3jmj70PFrFVS5s3Yc7b-138" value="&lt;b&gt;Error (400)&lt;/b&gt;" style="whiteSpace=wrap;html=1;rounded=0;fillColor=#FF0000;strokeColor=#6F0000;fontColor=#ffffff;" parent="a3jmj70PFrFVS5s3Yc7b-132" vertex="1">
          <mxGeometry x="165" y="360.62" width="140" height="60" as="geometry" />
        </mxCell>
        <mxCell id="a3jmj70PFrFVS5s3Yc7b-145" style="edgeStyle=orthogonalEdgeStyle;rounded=0;orthogonalLoop=1;jettySize=auto;html=1;exitX=0.5;exitY=1;exitDx=0;exitDy=0;entryX=1;entryY=0.5;entryDx=0;entryDy=0;" parent="a3jmj70PFrFVS5s3Yc7b-132" source="a3jmj70PFrFVS5s3Yc7b-143" target="a3jmj70PFrFVS5s3Yc7b-138" edge="1">
          <mxGeometry relative="1" as="geometry" />
        </mxCell>
        <mxCell id="a3jmj70PFrFVS5s3Yc7b-146" value="No" style="edgeLabel;html=1;align=center;verticalAlign=middle;resizable=0;points=[];" parent="a3jmj70PFrFVS5s3Yc7b-145" vertex="1" connectable="0">
          <mxGeometry x="-0.8676" relative="1" as="geometry">
            <mxPoint as="offset" />
          </mxGeometry>
        </mxCell>
        <mxCell id="a3jmj70PFrFVS5s3Yc7b-148" value="" style="edgeStyle=orthogonalEdgeStyle;rounded=0;orthogonalLoop=1;jettySize=auto;html=1;" parent="a3jmj70PFrFVS5s3Yc7b-132" source="a3jmj70PFrFVS5s3Yc7b-143" target="a3jmj70PFrFVS5s3Yc7b-147" edge="1">
          <mxGeometry relative="1" as="geometry" />
        </mxCell>
        <mxCell id="a3jmj70PFrFVS5s3Yc7b-143" value="&lt;b&gt;complexity &amp;gt; 2&lt;/b&gt;" style="rhombus;whiteSpace=wrap;html=1;strokeWidth=2;" parent="a3jmj70PFrFVS5s3Yc7b-132" vertex="1">
          <mxGeometry x="582.5" y="231.25" width="117.5" height="108.75" as="geometry" />
        </mxCell>
        <mxCell id="a3jmj70PFrFVS5s3Yc7b-156" value="" style="edgeStyle=orthogonalEdgeStyle;rounded=0;orthogonalLoop=1;jettySize=auto;html=1;" parent="a3jmj70PFrFVS5s3Yc7b-132" source="a3jmj70PFrFVS5s3Yc7b-147" target="a3jmj70PFrFVS5s3Yc7b-155" edge="1">
          <mxGeometry relative="1" as="geometry" />
        </mxCell>
        <mxCell id="a3jmj70PFrFVS5s3Yc7b-147" value="&lt;font color=&quot;#000000&quot;&gt;&lt;b&gt;Shuffle Possibilities&lt;/b&gt;&lt;/font&gt;" style="whiteSpace=wrap;html=1;strokeWidth=2;fillColor=#cce5ff;strokeColor=#36393d;" parent="a3jmj70PFrFVS5s3Yc7b-132" vertex="1">
          <mxGeometry x="778.75" y="255.63" width="151.25" height="60" as="geometry" />
        </mxCell>
        <mxCell id="a3jmj70PFrFVS5s3Yc7b-149" value="&lt;div style=&quot;&quot;&gt;&lt;span style=&quot;background-color: initial;&quot;&gt;&lt;b&gt;&lt;font style=&quot;font-size: 12px;&quot;&gt;Validate Query Params and return possibilities list&lt;/font&gt;&lt;/b&gt;&lt;/span&gt;&lt;/div&gt;" style="shape=note;whiteSpace=wrap;html=1;backgroundOutline=1;darkOpacity=0.05;align=left;" parent="a3jmj70PFrFVS5s3Yc7b-132" vertex="1">
          <mxGeometry x="187.5" y="56.25" width="100" height="130" as="geometry" />
        </mxCell>
        <mxCell id="a3jmj70PFrFVS5s3Yc7b-150" style="edgeStyle=orthogonalEdgeStyle;rounded=0;orthogonalLoop=1;jettySize=auto;html=1;exitX=0.5;exitY=0;exitDx=0;exitDy=0;entryX=0.5;entryY=1;entryDx=0;entryDy=0;entryPerimeter=0;" parent="a3jmj70PFrFVS5s3Yc7b-132" source="a3jmj70PFrFVS5s3Yc7b-134" target="a3jmj70PFrFVS5s3Yc7b-149" edge="1">
          <mxGeometry relative="1" as="geometry" />
        </mxCell>
        <mxCell id="a3jmj70PFrFVS5s3Yc7b-158" style="edgeStyle=orthogonalEdgeStyle;rounded=0;orthogonalLoop=1;jettySize=auto;html=1;exitX=0.5;exitY=1;exitDx=0;exitDy=0;entryX=1;entryY=0.5;entryDx=0;entryDy=0;" parent="a3jmj70PFrFVS5s3Yc7b-132" source="a3jmj70PFrFVS5s3Yc7b-155" target="a3jmj70PFrFVS5s3Yc7b-157" edge="1">
          <mxGeometry relative="1" as="geometry" />
        </mxCell>
        <mxCell id="a3jmj70PFrFVS5s3Yc7b-155" value="&lt;font color=&quot;#000000&quot;&gt;&lt;b&gt;Generate Random Password&lt;/b&gt;&lt;/font&gt;" style="whiteSpace=wrap;html=1;strokeWidth=2;fillColor=#cce5ff;strokeColor=#36393d;" parent="a3jmj70PFrFVS5s3Yc7b-132" vertex="1">
          <mxGeometry x="1010" y="255.63" width="151.25" height="60" as="geometry" />
        </mxCell>
        <mxCell id="a3jmj70PFrFVS5s3Yc7b-185" style="edgeStyle=orthogonalEdgeStyle;rounded=0;orthogonalLoop=1;jettySize=auto;html=1;exitX=0;exitY=0.5;exitDx=0;exitDy=0;entryX=1;entryY=0.5;entryDx=0;entryDy=0;" parent="a3jmj70PFrFVS5s3Yc7b-132" source="a3jmj70PFrFVS5s3Yc7b-157" target="a3jmj70PFrFVS5s3Yc7b-183" edge="1">
          <mxGeometry relative="1" as="geometry" />
        </mxCell>
        <mxCell id="a3jmj70PFrFVS5s3Yc7b-157" value="&lt;b&gt;Success (200)&lt;/b&gt;" style="whiteSpace=wrap;html=1;rounded=0;fillColor=#008a00;fontColor=#ffffff;strokeColor=#005700;" parent="a3jmj70PFrFVS5s3Yc7b-132" vertex="1">
          <mxGeometry x="165" y="456.25" width="140" height="60" as="geometry" />
        </mxCell>
        <mxCell id="a3jmj70PFrFVS5s3Yc7b-183" value="" style="ellipse;whiteSpace=wrap;html=1;aspect=fixed;" parent="a3jmj70PFrFVS5s3Yc7b-132" vertex="1">
          <mxGeometry x="70" y="416.25" width="50" height="50" as="geometry" />
        </mxCell>
        <mxCell id="a3jmj70PFrFVS5s3Yc7b-184" value="" style="ellipse;whiteSpace=wrap;html=1;aspect=fixed;fillColor=#FFFFFF;" parent="a3jmj70PFrFVS5s3Yc7b-132" vertex="1">
          <mxGeometry x="73.75" y="420" width="42.5" height="42.5" as="geometry" />
        </mxCell>
        <mxCell id="a3jmj70PFrFVS5s3Yc7b-188" value="Store Password Service" style="swimlane;horizontal=0;whiteSpace=wrap;html=1;" parent="a3jmj70PFrFVS5s3Yc7b-74" vertex="1">
          <mxGeometry x="20" y="560" width="1720" height="440" as="geometry" />
        </mxCell>
        <mxCell id="a3jmj70PFrFVS5s3Yc7b-191" value="" style="edgeStyle=orthogonalEdgeStyle;rounded=0;orthogonalLoop=1;jettySize=auto;html=1;" parent="a3jmj70PFrFVS5s3Yc7b-188" source="a3jmj70PFrFVS5s3Yc7b-189" target="a3jmj70PFrFVS5s3Yc7b-190" edge="1">
          <mxGeometry relative="1" as="geometry" />
        </mxCell>
        <mxCell id="a3jmj70PFrFVS5s3Yc7b-189" value="" style="strokeWidth=2;html=1;shape=mxgraph.flowchart.start_2;whiteSpace=wrap;" parent="a3jmj70PFrFVS5s3Yc7b-188" vertex="1">
          <mxGeometry x="355" y="264.9999999999999" width="50" height="50" as="geometry" />
        </mxCell>
        <mxCell id="a3jmj70PFrFVS5s3Yc7b-193" value="" style="edgeStyle=orthogonalEdgeStyle;rounded=0;orthogonalLoop=1;jettySize=auto;html=1;" parent="a3jmj70PFrFVS5s3Yc7b-188" source="a3jmj70PFrFVS5s3Yc7b-190" target="a3jmj70PFrFVS5s3Yc7b-192" edge="1">
          <mxGeometry relative="1" as="geometry" />
        </mxCell>
        <mxCell id="a3jmj70PFrFVS5s3Yc7b-190" value="&lt;b&gt;&lt;font color=&quot;#000000&quot;&gt;Get DB Table Name&lt;/font&gt;&lt;/b&gt;" style="whiteSpace=wrap;html=1;strokeWidth=2;fillColor=#cce5ff;strokeColor=#36393d;" parent="a3jmj70PFrFVS5s3Yc7b-188" vertex="1">
          <mxGeometry x="535" y="260" width="165" height="60" as="geometry" />
        </mxCell>
        <mxCell id="a3jmj70PFrFVS5s3Yc7b-195" value="" style="edgeStyle=orthogonalEdgeStyle;rounded=0;orthogonalLoop=1;jettySize=auto;html=1;" parent="a3jmj70PFrFVS5s3Yc7b-188" source="a3jmj70PFrFVS5s3Yc7b-192" target="a3jmj70PFrFVS5s3Yc7b-194" edge="1">
          <mxGeometry relative="1" as="geometry" />
        </mxCell>
        <mxCell id="a3jmj70PFrFVS5s3Yc7b-192" value="&lt;b&gt;&lt;font color=&quot;#000000&quot;&gt;Verify If Table Exists&lt;/font&gt;&lt;/b&gt;" style="whiteSpace=wrap;html=1;strokeWidth=2;fillColor=#cce5ff;strokeColor=#36393d;" parent="a3jmj70PFrFVS5s3Yc7b-188" vertex="1">
          <mxGeometry x="845" y="260" width="165" height="60" as="geometry" />
        </mxCell>
        <mxCell id="a3jmj70PFrFVS5s3Yc7b-197" value="" style="edgeStyle=orthogonalEdgeStyle;rounded=0;orthogonalLoop=1;jettySize=auto;html=1;" parent="a3jmj70PFrFVS5s3Yc7b-188" source="a3jmj70PFrFVS5s3Yc7b-194" target="a3jmj70PFrFVS5s3Yc7b-196" edge="1">
          <mxGeometry relative="1" as="geometry" />
        </mxCell>
        <mxCell id="a3jmj70PFrFVS5s3Yc7b-198" value="No" style="edgeLabel;html=1;align=center;verticalAlign=middle;resizable=0;points=[];" parent="a3jmj70PFrFVS5s3Yc7b-197" vertex="1" connectable="0">
          <mxGeometry x="-0.085" y="-2" relative="1" as="geometry">
            <mxPoint as="offset" />
          </mxGeometry>
        </mxCell>
        <mxCell id="a3jmj70PFrFVS5s3Yc7b-200" value="" style="edgeStyle=orthogonalEdgeStyle;rounded=0;orthogonalLoop=1;jettySize=auto;html=1;" parent="a3jmj70PFrFVS5s3Yc7b-188" source="a3jmj70PFrFVS5s3Yc7b-194" target="a3jmj70PFrFVS5s3Yc7b-199" edge="1">
          <mxGeometry relative="1" as="geometry" />
        </mxCell>
        <mxCell id="a3jmj70PFrFVS5s3Yc7b-201" value="Yes" style="edgeLabel;html=1;align=center;verticalAlign=middle;resizable=0;points=[];" parent="a3jmj70PFrFVS5s3Yc7b-200" vertex="1" connectable="0">
          <mxGeometry x="-0.0095" relative="1" as="geometry">
            <mxPoint as="offset" />
          </mxGeometry>
        </mxCell>
        <mxCell id="a3jmj70PFrFVS5s3Yc7b-194" value="&lt;b&gt;Exists?&lt;/b&gt;" style="rhombus;whiteSpace=wrap;html=1;strokeWidth=2;" parent="a3jmj70PFrFVS5s3Yc7b-188" vertex="1">
          <mxGeometry x="1155" y="180" width="80" height="80" as="geometry" />
        </mxCell>
        <mxCell id="a3jmj70PFrFVS5s3Yc7b-202" style="edgeStyle=orthogonalEdgeStyle;rounded=0;orthogonalLoop=1;jettySize=auto;html=1;exitX=1;exitY=0.5;exitDx=0;exitDy=0;entryX=0.5;entryY=0;entryDx=0;entryDy=0;" parent="a3jmj70PFrFVS5s3Yc7b-188" source="a3jmj70PFrFVS5s3Yc7b-196" target="a3jmj70PFrFVS5s3Yc7b-199" edge="1">
          <mxGeometry relative="1" as="geometry" />
        </mxCell>
        <mxCell id="a3jmj70PFrFVS5s3Yc7b-196" value="&lt;font color=&quot;#000000&quot;&gt;&lt;b&gt;Create Table on DynamoDB&lt;/b&gt;&lt;/font&gt;" style="whiteSpace=wrap;html=1;strokeWidth=2;fillColor=#cce5ff;strokeColor=#36393d;" parent="a3jmj70PFrFVS5s3Yc7b-188" vertex="1">
          <mxGeometry x="1135" y="30" width="120" height="60" as="geometry" />
        </mxCell>
        <mxCell id="a3jmj70PFrFVS5s3Yc7b-204" value="" style="edgeStyle=orthogonalEdgeStyle;rounded=0;orthogonalLoop=1;jettySize=auto;html=1;" parent="a3jmj70PFrFVS5s3Yc7b-188" source="a3jmj70PFrFVS5s3Yc7b-199" target="a3jmj70PFrFVS5s3Yc7b-203" edge="1">
          <mxGeometry relative="1" as="geometry" />
        </mxCell>
        <mxCell id="a3jmj70PFrFVS5s3Yc7b-199" value="&lt;font color=&quot;#000000&quot;&gt;&lt;b&gt;Insert Data on Table&lt;/b&gt;&lt;/font&gt;" style="whiteSpace=wrap;html=1;strokeWidth=2;fillColor=#cce5ff;strokeColor=#36393d;" parent="a3jmj70PFrFVS5s3Yc7b-188" vertex="1">
          <mxGeometry x="1305" y="160" width="110" height="60" as="geometry" />
        </mxCell>
        <mxCell id="a3jmj70PFrFVS5s3Yc7b-206" value="" style="edgeStyle=orthogonalEdgeStyle;rounded=0;orthogonalLoop=1;jettySize=auto;html=1;" parent="a3jmj70PFrFVS5s3Yc7b-188" source="a3jmj70PFrFVS5s3Yc7b-203" target="a3jmj70PFrFVS5s3Yc7b-205" edge="1">
          <mxGeometry relative="1" as="geometry">
            <Array as="points">
              <mxPoint x="1555" y="360" />
            </Array>
          </mxGeometry>
        </mxCell>
        <mxCell id="a3jmj70PFrFVS5s3Yc7b-203" value="&lt;font color=&quot;#000000&quot;&gt;&lt;b&gt;Create URL&lt;/b&gt;&lt;/font&gt;" style="whiteSpace=wrap;html=1;strokeWidth=2;fillColor=#cce5ff;strokeColor=#36393d;" parent="a3jmj70PFrFVS5s3Yc7b-188" vertex="1">
          <mxGeometry x="1495" y="160" width="120" height="60" as="geometry" />
        </mxCell>
        <mxCell id="a3jmj70PFrFVS5s3Yc7b-209" style="edgeStyle=orthogonalEdgeStyle;rounded=0;orthogonalLoop=1;jettySize=auto;html=1;exitX=0;exitY=0.5;exitDx=0;exitDy=0;entryX=1.065;entryY=0.507;entryDx=0;entryDy=0;entryPerimeter=0;" parent="a3jmj70PFrFVS5s3Yc7b-188" source="a3jmj70PFrFVS5s3Yc7b-205" target="a3jmj70PFrFVS5s3Yc7b-207" edge="1">
          <mxGeometry relative="1" as="geometry">
            <mxPoint x="140" y="360" as="targetPoint" />
          </mxGeometry>
        </mxCell>
        <mxCell id="a3jmj70PFrFVS5s3Yc7b-205" value="&lt;b style=&quot;&quot;&gt;Success (201)&lt;/b&gt;" style="whiteSpace=wrap;html=1;strokeWidth=2;fillColor=#008a00;strokeColor=#005700;fontColor=#ffffff;" parent="a3jmj70PFrFVS5s3Yc7b-188" vertex="1">
          <mxGeometry x="170" y="330" width="120" height="60" as="geometry" />
        </mxCell>
        <mxCell id="a3jmj70PFrFVS5s3Yc7b-207" value="" style="ellipse;whiteSpace=wrap;html=1;aspect=fixed;" parent="a3jmj70PFrFVS5s3Yc7b-188" vertex="1">
          <mxGeometry x="70" y="335" width="50" height="50" as="geometry" />
        </mxCell>
        <mxCell id="a3jmj70PFrFVS5s3Yc7b-208" value="" style="ellipse;whiteSpace=wrap;html=1;aspect=fixed;fillColor=#FFFFFF;" parent="a3jmj70PFrFVS5s3Yc7b-188" vertex="1">
          <mxGeometry x="73.75" y="338.75" width="42.5" height="42.5" as="geometry" />
        </mxCell>
        <mxCell id="a3jmj70PFrFVS5s3Yc7b-434" value="IAM&amp;nbsp;" style="swimlane;whiteSpace=wrap;html=1;" parent="a3jmj70PFrFVS5s3Yc7b-188" vertex="1">
          <mxGeometry x="145" y="30" width="481.5" height="215" as="geometry" />
        </mxCell>
        <mxCell id="a3jmj70PFrFVS5s3Yc7b-435" value="User: StorePassword" style="swimlane;whiteSpace=wrap;html=1;" parent="a3jmj70PFrFVS5s3Yc7b-434" vertex="1">
          <mxGeometry y="20" width="481.5" height="195" as="geometry" />
        </mxCell>
        <mxCell id="a3jmj70PFrFVS5s3Yc7b-436" value="Policy: StorePasswordLambda" style="swimlane;whiteSpace=wrap;html=1;" parent="a3jmj70PFrFVS5s3Yc7b-435" vertex="1">
          <mxGeometry x="1.5" y="25" width="480" height="170" as="geometry" />
        </mxCell>
        <mxCell id="a3jmj70PFrFVS5s3Yc7b-437" value="Statement: StoredPasswords" style="swimlane;horizontal=0;whiteSpace=wrap;html=1;startSize=59;" parent="a3jmj70PFrFVS5s3Yc7b-436" vertex="1">
          <mxGeometry y="24" width="270" height="146" as="geometry" />
        </mxCell>
        <mxCell id="a3jmj70PFrFVS5s3Yc7b-438" value="&lt;div&gt;GetItem&lt;/div&gt;PutItem&lt;div&gt;DeleteItem&lt;/div&gt;" style="rounded=0;whiteSpace=wrap;html=1;" parent="a3jmj70PFrFVS5s3Yc7b-437" vertex="1">
          <mxGeometry x="98.5" y="43" width="120" height="60" as="geometry" />
        </mxCell>
        <mxCell id="a3jmj70PFrFVS5s3Yc7b-439" value="Statement: All(*)" style="swimlane;horizontal=0;whiteSpace=wrap;html=1;" parent="a3jmj70PFrFVS5s3Yc7b-436" vertex="1">
          <mxGeometry x="270" y="24" width="210" height="146" as="geometry" />
        </mxCell>
        <mxCell id="a3jmj70PFrFVS5s3Yc7b-440" value="ListTables" style="rounded=0;whiteSpace=wrap;html=1;" parent="a3jmj70PFrFVS5s3Yc7b-439" vertex="1">
          <mxGeometry x="48.5" y="43" width="120" height="60" as="geometry" />
        </mxCell>
        <mxCell id="a3jmj70PFrFVS5s3Yc7b-210" value="Verify Password Service" style="swimlane;horizontal=0;whiteSpace=wrap;html=1;" parent="a3jmj70PFrFVS5s3Yc7b-74" vertex="1">
          <mxGeometry x="20" y="40" width="1720" height="530" as="geometry" />
        </mxCell>
        <mxCell id="a3jmj70PFrFVS5s3Yc7b-213" value="" style="edgeStyle=orthogonalEdgeStyle;rounded=0;orthogonalLoop=1;jettySize=auto;html=1;" parent="a3jmj70PFrFVS5s3Yc7b-210" source="a3jmj70PFrFVS5s3Yc7b-211" target="a3jmj70PFrFVS5s3Yc7b-212" edge="1">
          <mxGeometry relative="1" as="geometry" />
        </mxCell>
        <mxCell id="a3jmj70PFrFVS5s3Yc7b-211" value="" style="strokeWidth=2;html=1;shape=mxgraph.flowchart.start_2;whiteSpace=wrap;" parent="a3jmj70PFrFVS5s3Yc7b-210" vertex="1">
          <mxGeometry x="50" y="239.9999999999999" width="50" height="50" as="geometry" />
        </mxCell>
        <mxCell id="a3jmj70PFrFVS5s3Yc7b-215" value="" style="edgeStyle=orthogonalEdgeStyle;rounded=0;orthogonalLoop=1;jettySize=auto;html=1;" parent="a3jmj70PFrFVS5s3Yc7b-210" source="a3jmj70PFrFVS5s3Yc7b-212" target="a3jmj70PFrFVS5s3Yc7b-214" edge="1">
          <mxGeometry relative="1" as="geometry" />
        </mxCell>
        <mxCell id="a3jmj70PFrFVS5s3Yc7b-212" value="&lt;font color=&quot;#000000&quot;&gt;&lt;b&gt;Get DB Table Name&lt;/b&gt;&lt;/font&gt;" style="whiteSpace=wrap;html=1;strokeWidth=2;fillColor=#cce5ff;strokeColor=#36393d;" parent="a3jmj70PFrFVS5s3Yc7b-210" vertex="1">
          <mxGeometry x="165" y="235" width="155" height="60" as="geometry" />
        </mxCell>
        <mxCell id="a3jmj70PFrFVS5s3Yc7b-217" value="" style="edgeStyle=orthogonalEdgeStyle;rounded=0;orthogonalLoop=1;jettySize=auto;html=1;" parent="a3jmj70PFrFVS5s3Yc7b-210" source="a3jmj70PFrFVS5s3Yc7b-214" target="a3jmj70PFrFVS5s3Yc7b-216" edge="1">
          <mxGeometry relative="1" as="geometry" />
        </mxCell>
        <mxCell id="a3jmj70PFrFVS5s3Yc7b-214" value="&lt;font color=&quot;#000000&quot;&gt;&lt;b&gt;Verify if Table Exists&lt;/b&gt;&lt;/font&gt;" style="whiteSpace=wrap;html=1;strokeWidth=2;fillColor=#cce5ff;strokeColor=#36393d;" parent="a3jmj70PFrFVS5s3Yc7b-210" vertex="1">
          <mxGeometry x="400" y="235" width="155" height="60" as="geometry" />
        </mxCell>
        <mxCell id="a3jmj70PFrFVS5s3Yc7b-219" value="" style="edgeStyle=orthogonalEdgeStyle;rounded=0;orthogonalLoop=1;jettySize=auto;html=1;entryX=1;entryY=0.5;entryDx=0;entryDy=0;" parent="a3jmj70PFrFVS5s3Yc7b-210" source="a3jmj70PFrFVS5s3Yc7b-216" target="a3jmj70PFrFVS5s3Yc7b-218" edge="1">
          <mxGeometry relative="1" as="geometry">
            <Array as="points">
              <mxPoint x="670" y="235" />
            </Array>
          </mxGeometry>
        </mxCell>
        <mxCell id="a3jmj70PFrFVS5s3Yc7b-220" value="No" style="edgeLabel;html=1;align=center;verticalAlign=middle;resizable=0;points=[];" parent="a3jmj70PFrFVS5s3Yc7b-219" vertex="1" connectable="0">
          <mxGeometry x="-0.2876" relative="1" as="geometry">
            <mxPoint x="102" y="-30" as="offset" />
          </mxGeometry>
        </mxCell>
        <mxCell id="a3jmj70PFrFVS5s3Yc7b-222" value="" style="edgeStyle=orthogonalEdgeStyle;rounded=0;orthogonalLoop=1;jettySize=auto;html=1;" parent="a3jmj70PFrFVS5s3Yc7b-210" source="a3jmj70PFrFVS5s3Yc7b-216" target="a3jmj70PFrFVS5s3Yc7b-221" edge="1">
          <mxGeometry relative="1" as="geometry" />
        </mxCell>
        <mxCell id="a3jmj70PFrFVS5s3Yc7b-216" value="&lt;b&gt;Exists?&lt;/b&gt;" style="rhombus;whiteSpace=wrap;html=1;strokeWidth=2;" parent="a3jmj70PFrFVS5s3Yc7b-210" vertex="1">
          <mxGeometry x="630" y="225" width="80" height="80" as="geometry" />
        </mxCell>
        <mxCell id="a3jmj70PFrFVS5s3Yc7b-394" style="edgeStyle=orthogonalEdgeStyle;rounded=0;orthogonalLoop=1;jettySize=auto;html=1;exitX=0;exitY=0.5;exitDx=0;exitDy=0;entryX=1;entryY=0.5;entryDx=0;entryDy=0;" parent="a3jmj70PFrFVS5s3Yc7b-210" source="a3jmj70PFrFVS5s3Yc7b-218" target="a3jmj70PFrFVS5s3Yc7b-392" edge="1">
          <mxGeometry relative="1" as="geometry" />
        </mxCell>
        <mxCell id="a3jmj70PFrFVS5s3Yc7b-218" value="&lt;b&gt;Error (404)&lt;/b&gt;" style="whiteSpace=wrap;html=1;strokeWidth=2;fillColor=#e51400;fontColor=#ffffff;strokeColor=#B20000;" parent="a3jmj70PFrFVS5s3Yc7b-210" vertex="1">
          <mxGeometry x="165" y="330" width="120" height="60" as="geometry" />
        </mxCell>
        <mxCell id="a3jmj70PFrFVS5s3Yc7b-224" value="" style="edgeStyle=orthogonalEdgeStyle;rounded=0;orthogonalLoop=1;jettySize=auto;html=1;" parent="a3jmj70PFrFVS5s3Yc7b-210" source="a3jmj70PFrFVS5s3Yc7b-221" target="a3jmj70PFrFVS5s3Yc7b-223" edge="1">
          <mxGeometry relative="1" as="geometry" />
        </mxCell>
        <mxCell id="a3jmj70PFrFVS5s3Yc7b-221" value="&lt;b&gt;&lt;font color=&quot;#000000&quot;&gt;Verify if Item Exists&lt;/font&gt;&lt;/b&gt;" style="whiteSpace=wrap;html=1;strokeWidth=2;fillColor=#cce5ff;strokeColor=#36393d;" parent="a3jmj70PFrFVS5s3Yc7b-210" vertex="1">
          <mxGeometry x="770" y="235" width="160" height="60" as="geometry" />
        </mxCell>
        <mxCell id="a3jmj70PFrFVS5s3Yc7b-225" style="edgeStyle=orthogonalEdgeStyle;rounded=0;orthogonalLoop=1;jettySize=auto;html=1;exitX=0.5;exitY=1;exitDx=0;exitDy=0;entryX=1;entryY=0.5;entryDx=0;entryDy=0;" parent="a3jmj70PFrFVS5s3Yc7b-210" source="a3jmj70PFrFVS5s3Yc7b-223" target="a3jmj70PFrFVS5s3Yc7b-218" edge="1">
          <mxGeometry relative="1" as="geometry" />
        </mxCell>
        <mxCell id="a3jmj70PFrFVS5s3Yc7b-226" value="No" style="edgeLabel;html=1;align=center;verticalAlign=middle;resizable=0;points=[];" parent="a3jmj70PFrFVS5s3Yc7b-225" vertex="1" connectable="0">
          <mxGeometry x="-0.8811" relative="1" as="geometry">
            <mxPoint y="-16" as="offset" />
          </mxGeometry>
        </mxCell>
        <mxCell id="a3jmj70PFrFVS5s3Yc7b-228" value="" style="edgeStyle=orthogonalEdgeStyle;rounded=0;orthogonalLoop=1;jettySize=auto;html=1;" parent="a3jmj70PFrFVS5s3Yc7b-210" source="a3jmj70PFrFVS5s3Yc7b-223" target="a3jmj70PFrFVS5s3Yc7b-227" edge="1">
          <mxGeometry relative="1" as="geometry" />
        </mxCell>
        <mxCell id="a3jmj70PFrFVS5s3Yc7b-417" value="Yes" style="edgeLabel;html=1;align=center;verticalAlign=middle;resizable=0;points=[];" parent="a3jmj70PFrFVS5s3Yc7b-228" vertex="1" connectable="0">
          <mxGeometry x="-0.1095" y="2" relative="1" as="geometry">
            <mxPoint as="offset" />
          </mxGeometry>
        </mxCell>
        <mxCell id="a3jmj70PFrFVS5s3Yc7b-223" value="&lt;b&gt;Exists?&lt;/b&gt;" style="rhombus;whiteSpace=wrap;html=1;strokeWidth=2;" parent="a3jmj70PFrFVS5s3Yc7b-210" vertex="1">
          <mxGeometry x="988" y="225" width="80" height="80" as="geometry" />
        </mxCell>
        <mxCell id="a3jmj70PFrFVS5s3Yc7b-230" value="" style="edgeStyle=orthogonalEdgeStyle;rounded=0;orthogonalLoop=1;jettySize=auto;html=1;" parent="a3jmj70PFrFVS5s3Yc7b-210" source="a3jmj70PFrFVS5s3Yc7b-227" target="a3jmj70PFrFVS5s3Yc7b-229" edge="1">
          <mxGeometry relative="1" as="geometry" />
        </mxCell>
        <mxCell id="a3jmj70PFrFVS5s3Yc7b-227" value="&lt;font color=&quot;#000000&quot;&gt;&lt;b&gt;Verify Times Count and Expire Date&lt;/b&gt;&lt;/font&gt;" style="whiteSpace=wrap;html=1;strokeWidth=2;fillColor=#cce5ff;strokeColor=#36393d;" parent="a3jmj70PFrFVS5s3Yc7b-210" vertex="1">
          <mxGeometry x="1128" y="235" width="120" height="60" as="geometry" />
        </mxCell>
        <mxCell id="a3jmj70PFrFVS5s3Yc7b-232" value="" style="edgeStyle=orthogonalEdgeStyle;rounded=0;orthogonalLoop=1;jettySize=auto;html=1;" parent="a3jmj70PFrFVS5s3Yc7b-210" source="a3jmj70PFrFVS5s3Yc7b-229" target="a3jmj70PFrFVS5s3Yc7b-231" edge="1">
          <mxGeometry relative="1" as="geometry" />
        </mxCell>
        <mxCell id="a3jmj70PFrFVS5s3Yc7b-233" value="Yes" style="edgeLabel;html=1;align=center;verticalAlign=middle;resizable=0;points=[];" parent="a3jmj70PFrFVS5s3Yc7b-232" vertex="1" connectable="0">
          <mxGeometry x="0.0165" y="-3" relative="1" as="geometry">
            <mxPoint as="offset" />
          </mxGeometry>
        </mxCell>
        <mxCell id="a3jmj70PFrFVS5s3Yc7b-236" value="" style="edgeStyle=orthogonalEdgeStyle;rounded=0;orthogonalLoop=1;jettySize=auto;html=1;" parent="a3jmj70PFrFVS5s3Yc7b-210" source="a3jmj70PFrFVS5s3Yc7b-229" target="a3jmj70PFrFVS5s3Yc7b-235" edge="1">
          <mxGeometry relative="1" as="geometry" />
        </mxCell>
        <mxCell id="a3jmj70PFrFVS5s3Yc7b-237" value="No" style="edgeLabel;html=1;align=center;verticalAlign=middle;resizable=0;points=[];" parent="a3jmj70PFrFVS5s3Yc7b-236" vertex="1" connectable="0">
          <mxGeometry x="-0.2121" y="2" relative="1" as="geometry">
            <mxPoint as="offset" />
          </mxGeometry>
        </mxCell>
        <mxCell id="a3jmj70PFrFVS5s3Yc7b-229" value="&lt;b&gt;Expired or Count = 0?&lt;/b&gt;" style="rhombus;whiteSpace=wrap;html=1;strokeWidth=2;" parent="a3jmj70PFrFVS5s3Yc7b-210" vertex="1">
          <mxGeometry x="1348" y="210" width="92" height="110" as="geometry" />
        </mxCell>
        <mxCell id="a3jmj70PFrFVS5s3Yc7b-234" style="edgeStyle=orthogonalEdgeStyle;rounded=0;orthogonalLoop=1;jettySize=auto;html=1;exitX=0;exitY=0.5;exitDx=0;exitDy=0;entryX=1;entryY=0.5;entryDx=0;entryDy=0;" parent="a3jmj70PFrFVS5s3Yc7b-210" source="a3jmj70PFrFVS5s3Yc7b-231" target="a3jmj70PFrFVS5s3Yc7b-218" edge="1">
          <mxGeometry relative="1" as="geometry">
            <Array as="points">
              <mxPoint x="1310" y="410" />
              <mxPoint x="1310" y="360" />
            </Array>
          </mxGeometry>
        </mxCell>
        <mxCell id="a3jmj70PFrFVS5s3Yc7b-231" value="&lt;b&gt;&lt;font color=&quot;#000000&quot;&gt;Delete Item from Table&lt;/font&gt;&lt;/b&gt;" style="whiteSpace=wrap;html=1;strokeWidth=2;fillColor=#cce5ff;strokeColor=#36393d;" parent="a3jmj70PFrFVS5s3Yc7b-210" vertex="1">
          <mxGeometry x="1334" y="380" width="120" height="60" as="geometry" />
        </mxCell>
        <mxCell id="a3jmj70PFrFVS5s3Yc7b-239" value="" style="edgeStyle=orthogonalEdgeStyle;rounded=0;orthogonalLoop=1;jettySize=auto;html=1;" parent="a3jmj70PFrFVS5s3Yc7b-210" source="a3jmj70PFrFVS5s3Yc7b-235" target="a3jmj70PFrFVS5s3Yc7b-238" edge="1">
          <mxGeometry relative="1" as="geometry">
            <Array as="points">
              <mxPoint x="1610" y="470" />
            </Array>
          </mxGeometry>
        </mxCell>
        <mxCell id="a3jmj70PFrFVS5s3Yc7b-235" value="&lt;b&gt;&lt;font color=&quot;#000000&quot;&gt;Update Item on Table&lt;/font&gt;&lt;/b&gt;" style="whiteSpace=wrap;html=1;strokeWidth=2;fillColor=#cce5ff;strokeColor=#36393d;" parent="a3jmj70PFrFVS5s3Yc7b-210" vertex="1">
          <mxGeometry x="1550" y="235" width="120" height="60" as="geometry" />
        </mxCell>
        <mxCell id="a3jmj70PFrFVS5s3Yc7b-395" style="edgeStyle=orthogonalEdgeStyle;rounded=0;orthogonalLoop=1;jettySize=auto;html=1;exitX=0;exitY=0.5;exitDx=0;exitDy=0;entryX=1;entryY=0.5;entryDx=0;entryDy=0;" parent="a3jmj70PFrFVS5s3Yc7b-210" source="a3jmj70PFrFVS5s3Yc7b-238" target="a3jmj70PFrFVS5s3Yc7b-392" edge="1">
          <mxGeometry relative="1" as="geometry" />
        </mxCell>
        <mxCell id="a3jmj70PFrFVS5s3Yc7b-238" value="&lt;b&gt;Success (200)&lt;/b&gt;" style="whiteSpace=wrap;html=1;fillColor=#008a00;strokeColor=#005700;strokeWidth=2;fontColor=#ffffff;" parent="a3jmj70PFrFVS5s3Yc7b-210" vertex="1">
          <mxGeometry x="165" y="430" width="120" height="60" as="geometry" />
        </mxCell>
        <mxCell id="a3jmj70PFrFVS5s3Yc7b-392" value="" style="ellipse;whiteSpace=wrap;html=1;aspect=fixed;" parent="a3jmj70PFrFVS5s3Yc7b-210" vertex="1">
          <mxGeometry x="50" y="410" width="50" height="50" as="geometry" />
        </mxCell>
        <mxCell id="a3jmj70PFrFVS5s3Yc7b-393" value="" style="ellipse;whiteSpace=wrap;html=1;aspect=fixed;fillColor=#FFFFFF;" parent="a3jmj70PFrFVS5s3Yc7b-210" vertex="1">
          <mxGeometry x="53.75" y="413.75" width="42.5" height="42.5" as="geometry" />
        </mxCell>
        <mxCell id="a3jmj70PFrFVS5s3Yc7b-418" value="IAM&amp;nbsp;" style="swimlane;whiteSpace=wrap;html=1;" parent="a3jmj70PFrFVS5s3Yc7b-210" vertex="1">
          <mxGeometry x="145" y="10" width="481.5" height="215" as="geometry" />
        </mxCell>
        <mxCell id="a3jmj70PFrFVS5s3Yc7b-420" value="User: VerifyPassword" style="swimlane;whiteSpace=wrap;html=1;" parent="a3jmj70PFrFVS5s3Yc7b-418" vertex="1">
          <mxGeometry y="20" width="481.5" height="195" as="geometry" />
        </mxCell>
        <mxCell id="a3jmj70PFrFVS5s3Yc7b-422" value="Policy: VerifyPasswordLambda" style="swimlane;whiteSpace=wrap;html=1;" parent="a3jmj70PFrFVS5s3Yc7b-420" vertex="1">
          <mxGeometry x="1.5" y="25" width="480" height="170" as="geometry" />
        </mxCell>
        <mxCell id="a3jmj70PFrFVS5s3Yc7b-427" value="Statement: StoredPasswords" style="swimlane;horizontal=0;whiteSpace=wrap;html=1;startSize=59;" parent="a3jmj70PFrFVS5s3Yc7b-422" vertex="1">
          <mxGeometry y="24" width="270" height="146" as="geometry" />
        </mxCell>
        <mxCell id="a3jmj70PFrFVS5s3Yc7b-428" value="PutItem" style="rounded=0;whiteSpace=wrap;html=1;" parent="a3jmj70PFrFVS5s3Yc7b-427" vertex="1">
          <mxGeometry x="98.5" y="43" width="120" height="60" as="geometry" />
        </mxCell>
        <mxCell id="a3jmj70PFrFVS5s3Yc7b-431" value="Statement: All(*)" style="swimlane;horizontal=0;whiteSpace=wrap;html=1;" parent="a3jmj70PFrFVS5s3Yc7b-422" vertex="1">
          <mxGeometry x="270" y="24" width="210" height="146" as="geometry" />
        </mxCell>
        <mxCell id="a3jmj70PFrFVS5s3Yc7b-432" value="ListTables&lt;div&gt;CreateTable&lt;/div&gt;" style="rounded=0;whiteSpace=wrap;html=1;" parent="a3jmj70PFrFVS5s3Yc7b-431" vertex="1">
          <mxGeometry x="48.5" y="33.5" width="120" height="60" as="geometry" />
        </mxCell>
        <mxCell id="a3jmj70PFrFVS5s3Yc7b-396" value="" style="endArrow=classic;html=1;rounded=0;" parent="1" edge="1">
          <mxGeometry relative="1" as="geometry">
            <mxPoint x="2130" y="410" as="sourcePoint" />
            <mxPoint x="2290" y="410" as="targetPoint" />
          </mxGeometry>
        </mxCell>
        <mxCell id="a3jmj70PFrFVS5s3Yc7b-397" value="call" style="edgeLabel;resizable=0;html=1;;align=center;verticalAlign=middle;" parent="a3jmj70PFrFVS5s3Yc7b-396" connectable="0" vertex="1">
          <mxGeometry relative="1" as="geometry" />
        </mxCell>
        <mxCell id="a3jmj70PFrFVS5s3Yc7b-398" value="API" style="edgeLabel;resizable=0;html=1;;align=left;verticalAlign=bottom;" parent="a3jmj70PFrFVS5s3Yc7b-396" connectable="0" vertex="1">
          <mxGeometry x="-1" relative="1" as="geometry" />
        </mxCell>
        <mxCell id="a3jmj70PFrFVS5s3Yc7b-399" value="Service" style="edgeLabel;resizable=0;html=1;;align=right;verticalAlign=bottom;" parent="a3jmj70PFrFVS5s3Yc7b-396" connectable="0" vertex="1">
          <mxGeometry x="1" relative="1" as="geometry">
            <mxPoint y="-5" as="offset" />
          </mxGeometry>
        </mxCell>
        <mxCell id="a3jmj70PFrFVS5s3Yc7b-400" value="" style="endArrow=classic;html=1;rounded=0;" parent="1" edge="1">
          <mxGeometry relative="1" as="geometry">
            <mxPoint x="2290" y="440" as="sourcePoint" />
            <mxPoint x="2130" y="440" as="targetPoint" />
          </mxGeometry>
        </mxCell>
        <mxCell id="a3jmj70PFrFVS5s3Yc7b-401" value="return" style="edgeLabel;resizable=0;html=1;;align=center;verticalAlign=middle;" parent="a3jmj70PFrFVS5s3Yc7b-400" connectable="0" vertex="1">
          <mxGeometry relative="1" as="geometry" />
        </mxCell>
        <mxCell id="a3jmj70PFrFVS5s3Yc7b-402" value="Service" style="edgeLabel;resizable=0;html=1;;align=left;verticalAlign=bottom;" parent="a3jmj70PFrFVS5s3Yc7b-400" connectable="0" vertex="1">
          <mxGeometry x="-1" relative="1" as="geometry">
            <mxPoint x="-40" as="offset" />
          </mxGeometry>
        </mxCell>
        <mxCell id="a3jmj70PFrFVS5s3Yc7b-403" value="API" style="edgeLabel;resizable=0;html=1;;align=right;verticalAlign=bottom;" parent="a3jmj70PFrFVS5s3Yc7b-400" connectable="0" vertex="1">
          <mxGeometry x="1" relative="1" as="geometry">
            <mxPoint x="20" y="20" as="offset" />
          </mxGeometry>
        </mxCell>
        <mxCell id="a3jmj70PFrFVS5s3Yc7b-405" value="Amazon DynamoDB" style="swimlane;whiteSpace=wrap;html=1;" parent="1" vertex="1">
          <mxGeometry x="4400" y="50" width="640" height="800" as="geometry" />
        </mxCell>
        <mxCell id="a3jmj70PFrFVS5s3Yc7b-416" value="" style="edgeStyle=orthogonalEdgeStyle;rounded=0;orthogonalLoop=1;jettySize=auto;html=1;" parent="a3jmj70PFrFVS5s3Yc7b-405" source="a3jmj70PFrFVS5s3Yc7b-414" target="a3jmj70PFrFVS5s3Yc7b-415" edge="1">
          <mxGeometry relative="1" as="geometry" />
        </mxCell>
        <mxCell id="a3jmj70PFrFVS5s3Yc7b-414" value="" style="strokeWidth=2;html=1;shape=mxgraph.flowchart.start_2;whiteSpace=wrap;" parent="a3jmj70PFrFVS5s3Yc7b-405" vertex="1">
          <mxGeometry x="40" y="159.9999999999999" width="50" height="50" as="geometry" />
        </mxCell>
        <mxCell id="a3jmj70PFrFVS5s3Yc7b-444" value="" style="edgeStyle=orthogonalEdgeStyle;rounded=0;orthogonalLoop=1;jettySize=auto;html=1;" parent="a3jmj70PFrFVS5s3Yc7b-405" source="a3jmj70PFrFVS5s3Yc7b-415" target="a3jmj70PFrFVS5s3Yc7b-443" edge="1">
          <mxGeometry relative="1" as="geometry" />
        </mxCell>
        <mxCell id="a3jmj70PFrFVS5s3Yc7b-415" value="&lt;font color=&quot;#000000&quot;&gt;&lt;b&gt;Check IAM User&lt;/b&gt;&lt;/font&gt;" style="whiteSpace=wrap;html=1;strokeWidth=2;fillColor=#cce5ff;strokeColor=#36393d;" parent="a3jmj70PFrFVS5s3Yc7b-405" vertex="1">
          <mxGeometry x="135" y="154.9999999999999" width="120" height="60" as="geometry" />
        </mxCell>
        <mxCell id="a3jmj70PFrFVS5s3Yc7b-446" value="" style="edgeStyle=orthogonalEdgeStyle;rounded=0;orthogonalLoop=1;jettySize=auto;html=1;" parent="a3jmj70PFrFVS5s3Yc7b-405" source="a3jmj70PFrFVS5s3Yc7b-443" target="a3jmj70PFrFVS5s3Yc7b-445" edge="1">
          <mxGeometry relative="1" as="geometry">
            <Array as="points">
              <mxPoint x="350" y="280" />
            </Array>
          </mxGeometry>
        </mxCell>
        <mxCell id="a3jmj70PFrFVS5s3Yc7b-447" value="No" style="edgeLabel;html=1;align=center;verticalAlign=middle;resizable=0;points=[];" parent="a3jmj70PFrFVS5s3Yc7b-446" vertex="1" connectable="0">
          <mxGeometry x="-0.5309" y="1" relative="1" as="geometry">
            <mxPoint as="offset" />
          </mxGeometry>
        </mxCell>
        <mxCell id="a3jmj70PFrFVS5s3Yc7b-449" value="" style="edgeStyle=orthogonalEdgeStyle;rounded=0;orthogonalLoop=1;jettySize=auto;html=1;" parent="a3jmj70PFrFVS5s3Yc7b-405" source="a3jmj70PFrFVS5s3Yc7b-443" target="a3jmj70PFrFVS5s3Yc7b-448" edge="1">
          <mxGeometry relative="1" as="geometry" />
        </mxCell>
        <mxCell id="a3jmj70PFrFVS5s3Yc7b-443" value="Valid?" style="rhombus;whiteSpace=wrap;html=1;strokeWidth=2;" parent="a3jmj70PFrFVS5s3Yc7b-405" vertex="1">
          <mxGeometry x="310" y="144.9999999999999" width="80" height="80" as="geometry" />
        </mxCell>
        <mxCell id="a3jmj70PFrFVS5s3Yc7b-521" style="edgeStyle=orthogonalEdgeStyle;rounded=0;orthogonalLoop=1;jettySize=auto;html=1;exitX=0.5;exitY=1;exitDx=0;exitDy=0;entryX=1;entryY=0.5;entryDx=0;entryDy=0;" parent="a3jmj70PFrFVS5s3Yc7b-405" source="a3jmj70PFrFVS5s3Yc7b-445" target="a3jmj70PFrFVS5s3Yc7b-518" edge="1">
          <mxGeometry relative="1" as="geometry" />
        </mxCell>
        <mxCell id="a3jmj70PFrFVS5s3Yc7b-445" value="&lt;b&gt;Deny Access&lt;/b&gt;" style="whiteSpace=wrap;html=1;strokeWidth=2;fillColor=#a20025;fontColor=#ffffff;strokeColor=#6F0000;" parent="a3jmj70PFrFVS5s3Yc7b-405" vertex="1">
          <mxGeometry x="70" y="249.9999999999999" width="120" height="60" as="geometry" />
        </mxCell>
        <mxCell id="a3jmj70PFrFVS5s3Yc7b-451" value="" style="edgeStyle=orthogonalEdgeStyle;rounded=0;orthogonalLoop=1;jettySize=auto;html=1;" parent="a3jmj70PFrFVS5s3Yc7b-405" source="a3jmj70PFrFVS5s3Yc7b-448" target="a3jmj70PFrFVS5s3Yc7b-450" edge="1">
          <mxGeometry relative="1" as="geometry" />
        </mxCell>
        <mxCell id="a3jmj70PFrFVS5s3Yc7b-448" value="&lt;font color=&quot;#000000&quot;&gt;&lt;b&gt;Check User Policy&lt;/b&gt;&lt;/font&gt;" style="whiteSpace=wrap;html=1;strokeWidth=2;fillColor=#cce5ff;strokeColor=#36393d;" parent="a3jmj70PFrFVS5s3Yc7b-405" vertex="1">
          <mxGeometry x="450" y="154.9999999999999" width="120" height="60" as="geometry" />
        </mxCell>
        <mxCell id="a3jmj70PFrFVS5s3Yc7b-452" style="edgeStyle=orthogonalEdgeStyle;rounded=0;orthogonalLoop=1;jettySize=auto;html=1;exitX=0;exitY=0.5;exitDx=0;exitDy=0;entryX=1;entryY=0.5;entryDx=0;entryDy=0;" parent="a3jmj70PFrFVS5s3Yc7b-405" source="a3jmj70PFrFVS5s3Yc7b-450" target="a3jmj70PFrFVS5s3Yc7b-445" edge="1">
          <mxGeometry relative="1" as="geometry">
            <Array as="points">
              <mxPoint x="320" y="325" />
              <mxPoint x="320" y="280" />
            </Array>
          </mxGeometry>
        </mxCell>
        <mxCell id="a3jmj70PFrFVS5s3Yc7b-453" value="No" style="edgeLabel;html=1;align=center;verticalAlign=middle;resizable=0;points=[];" parent="a3jmj70PFrFVS5s3Yc7b-452" vertex="1" connectable="0">
          <mxGeometry x="-0.6968" y="3" relative="1" as="geometry">
            <mxPoint y="-3" as="offset" />
          </mxGeometry>
        </mxCell>
        <mxCell id="a3jmj70PFrFVS5s3Yc7b-455" value="" style="edgeStyle=orthogonalEdgeStyle;rounded=0;orthogonalLoop=1;jettySize=auto;html=1;" parent="a3jmj70PFrFVS5s3Yc7b-405" source="a3jmj70PFrFVS5s3Yc7b-450" target="a3jmj70PFrFVS5s3Yc7b-454" edge="1">
          <mxGeometry relative="1" as="geometry" />
        </mxCell>
        <mxCell id="a3jmj70PFrFVS5s3Yc7b-450" value="Valid?" style="rhombus;whiteSpace=wrap;html=1;strokeWidth=2;" parent="a3jmj70PFrFVS5s3Yc7b-405" vertex="1">
          <mxGeometry x="470" y="284.9999999999999" width="80" height="80" as="geometry" />
        </mxCell>
        <mxCell id="a3jmj70PFrFVS5s3Yc7b-475" style="edgeStyle=orthogonalEdgeStyle;rounded=0;orthogonalLoop=1;jettySize=auto;html=1;exitX=0;exitY=0.5;exitDx=0;exitDy=0;entryX=0.5;entryY=0;entryDx=0;entryDy=0;" parent="a3jmj70PFrFVS5s3Yc7b-405" source="a3jmj70PFrFVS5s3Yc7b-454" target="a3jmj70PFrFVS5s3Yc7b-456" edge="1">
          <mxGeometry relative="1" as="geometry">
            <mxPoint x="316.66666666666697" y="370" as="targetPoint" />
          </mxGeometry>
        </mxCell>
        <mxCell id="a3jmj70PFrFVS5s3Yc7b-454" value="&lt;font color=&quot;#000000&quot;&gt;&lt;b&gt;Execute Action On&lt;/b&gt;&lt;/font&gt;" style="whiteSpace=wrap;html=1;strokeWidth=2;fillColor=#cce5ff;strokeColor=#36393d;" parent="a3jmj70PFrFVS5s3Yc7b-405" vertex="1">
          <mxGeometry x="450" y="454.9999999999999" width="120" height="60" as="geometry" />
        </mxCell>
        <mxCell id="a3jmj70PFrFVS5s3Yc7b-477" value="" style="edgeStyle=orthogonalEdgeStyle;rounded=0;orthogonalLoop=1;jettySize=auto;html=1;" parent="a3jmj70PFrFVS5s3Yc7b-405" source="a3jmj70PFrFVS5s3Yc7b-456" target="a3jmj70PFrFVS5s3Yc7b-476" edge="1">
          <mxGeometry relative="1" as="geometry" />
        </mxCell>
        <mxCell id="a3jmj70PFrFVS5s3Yc7b-456" value="StoredPasswords" style="shape=table;startSize=30;container=1;collapsible=0;childLayout=tableLayout;fixedRows=1;rowLines=0;fontStyle=1;strokeColor=default;fontSize=16;" parent="a3jmj70PFrFVS5s3Yc7b-405" vertex="1">
          <mxGeometry x="149" y="395" width="250" height="180" as="geometry" />
        </mxCell>
        <mxCell id="a3jmj70PFrFVS5s3Yc7b-457" value="" style="shape=tableRow;horizontal=0;startSize=0;swimlaneHead=0;swimlaneBody=0;top=0;left=0;bottom=0;right=0;collapsible=0;dropTarget=0;fillColor=none;points=[[0,0.5],[1,0.5]];portConstraint=eastwest;strokeColor=inherit;fontSize=16;" parent="a3jmj70PFrFVS5s3Yc7b-456" vertex="1">
          <mxGeometry y="30" width="250" height="30" as="geometry" />
        </mxCell>
        <mxCell id="a3jmj70PFrFVS5s3Yc7b-458" value="id" style="shape=partialRectangle;html=1;whiteSpace=wrap;connectable=0;fillColor=none;top=0;left=0;bottom=0;right=0;overflow=hidden;pointerEvents=1;strokeColor=inherit;fontSize=16;" parent="a3jmj70PFrFVS5s3Yc7b-457" vertex="1">
          <mxGeometry width="80" height="30" as="geometry">
            <mxRectangle width="80" height="30" as="alternateBounds" />
          </mxGeometry>
        </mxCell>
        <mxCell id="a3jmj70PFrFVS5s3Yc7b-459" value="uuid (S)" style="shape=partialRectangle;html=1;whiteSpace=wrap;connectable=0;fillColor=none;top=0;left=0;bottom=0;right=0;align=left;spacingLeft=6;overflow=hidden;strokeColor=inherit;fontSize=16;" parent="a3jmj70PFrFVS5s3Yc7b-457" vertex="1">
          <mxGeometry x="80" width="170" height="30" as="geometry">
            <mxRectangle width="170" height="30" as="alternateBounds" />
          </mxGeometry>
        </mxCell>
        <mxCell id="a3jmj70PFrFVS5s3Yc7b-460" value="" style="shape=tableRow;horizontal=0;startSize=0;swimlaneHead=0;swimlaneBody=0;top=0;left=0;bottom=0;right=0;collapsible=0;dropTarget=0;fillColor=none;points=[[0,0.5],[1,0.5]];portConstraint=eastwest;strokeColor=inherit;fontSize=16;" parent="a3jmj70PFrFVS5s3Yc7b-456" vertex="1">
          <mxGeometry y="60" width="250" height="30" as="geometry" />
        </mxCell>
        <mxCell id="a3jmj70PFrFVS5s3Yc7b-461" value="salt" style="shape=partialRectangle;html=1;whiteSpace=wrap;connectable=0;fillColor=none;top=0;left=0;bottom=0;right=0;overflow=hidden;strokeColor=inherit;fontSize=16;" parent="a3jmj70PFrFVS5s3Yc7b-460" vertex="1">
          <mxGeometry width="80" height="30" as="geometry">
            <mxRectangle width="80" height="30" as="alternateBounds" />
          </mxGeometry>
        </mxCell>
        <mxCell id="a3jmj70PFrFVS5s3Yc7b-462" value="base64 (S)" style="shape=partialRectangle;html=1;whiteSpace=wrap;connectable=0;fillColor=none;top=0;left=0;bottom=0;right=0;align=left;spacingLeft=6;overflow=hidden;strokeColor=inherit;fontSize=16;" parent="a3jmj70PFrFVS5s3Yc7b-460" vertex="1">
          <mxGeometry x="80" width="170" height="30" as="geometry">
            <mxRectangle width="170" height="30" as="alternateBounds" />
          </mxGeometry>
        </mxCell>
        <mxCell id="a3jmj70PFrFVS5s3Yc7b-463" value="" style="shape=tableRow;horizontal=0;startSize=0;swimlaneHead=0;swimlaneBody=0;top=0;left=0;bottom=0;right=0;collapsible=0;dropTarget=0;fillColor=none;points=[[0,0.5],[1,0.5]];portConstraint=eastwest;strokeColor=inherit;fontSize=16;" parent="a3jmj70PFrFVS5s3Yc7b-456" vertex="1">
          <mxGeometry y="90" width="250" height="30" as="geometry" />
        </mxCell>
        <mxCell id="a3jmj70PFrFVS5s3Yc7b-464" value="expires" style="shape=partialRectangle;html=1;whiteSpace=wrap;connectable=0;fillColor=none;top=0;left=0;bottom=0;right=0;overflow=hidden;strokeColor=inherit;fontSize=16;" parent="a3jmj70PFrFVS5s3Yc7b-463" vertex="1">
          <mxGeometry width="80" height="30" as="geometry">
            <mxRectangle width="80" height="30" as="alternateBounds" />
          </mxGeometry>
        </mxCell>
        <mxCell id="a3jmj70PFrFVS5s3Yc7b-465" value="timestamp (S)" style="shape=partialRectangle;html=1;whiteSpace=wrap;connectable=0;fillColor=none;top=0;left=0;bottom=0;right=0;align=left;spacingLeft=6;overflow=hidden;strokeColor=inherit;fontSize=16;" parent="a3jmj70PFrFVS5s3Yc7b-463" vertex="1">
          <mxGeometry x="80" width="170" height="30" as="geometry">
            <mxRectangle width="170" height="30" as="alternateBounds" />
          </mxGeometry>
        </mxCell>
        <mxCell id="a3jmj70PFrFVS5s3Yc7b-469" style="shape=tableRow;horizontal=0;startSize=0;swimlaneHead=0;swimlaneBody=0;top=0;left=0;bottom=0;right=0;collapsible=0;dropTarget=0;fillColor=none;points=[[0,0.5],[1,0.5]];portConstraint=eastwest;strokeColor=inherit;fontSize=16;" parent="a3jmj70PFrFVS5s3Yc7b-456" vertex="1">
          <mxGeometry y="120" width="250" height="30" as="geometry" />
        </mxCell>
        <mxCell id="a3jmj70PFrFVS5s3Yc7b-470" value="password" style="shape=partialRectangle;html=1;whiteSpace=wrap;connectable=0;fillColor=none;top=0;left=0;bottom=0;right=0;overflow=hidden;strokeColor=inherit;fontSize=16;" parent="a3jmj70PFrFVS5s3Yc7b-469" vertex="1">
          <mxGeometry width="80" height="30" as="geometry">
            <mxRectangle width="80" height="30" as="alternateBounds" />
          </mxGeometry>
        </mxCell>
        <mxCell id="a3jmj70PFrFVS5s3Yc7b-471" value="base64 (S)" style="shape=partialRectangle;html=1;whiteSpace=wrap;connectable=0;fillColor=none;top=0;left=0;bottom=0;right=0;align=left;spacingLeft=6;overflow=hidden;strokeColor=inherit;fontSize=16;" parent="a3jmj70PFrFVS5s3Yc7b-469" vertex="1">
          <mxGeometry x="80" width="170" height="30" as="geometry">
            <mxRectangle width="170" height="30" as="alternateBounds" />
          </mxGeometry>
        </mxCell>
        <mxCell id="a3jmj70PFrFVS5s3Yc7b-472" style="shape=tableRow;horizontal=0;startSize=0;swimlaneHead=0;swimlaneBody=0;top=0;left=0;bottom=0;right=0;collapsible=0;dropTarget=0;fillColor=none;points=[[0,0.5],[1,0.5]];portConstraint=eastwest;strokeColor=inherit;fontSize=16;" parent="a3jmj70PFrFVS5s3Yc7b-456" vertex="1">
          <mxGeometry y="150" width="250" height="30" as="geometry" />
        </mxCell>
        <mxCell id="a3jmj70PFrFVS5s3Yc7b-473" value="times" style="shape=partialRectangle;html=1;whiteSpace=wrap;connectable=0;fillColor=none;top=0;left=0;bottom=0;right=0;overflow=hidden;strokeColor=inherit;fontSize=16;" parent="a3jmj70PFrFVS5s3Yc7b-472" vertex="1">
          <mxGeometry width="80" height="30" as="geometry">
            <mxRectangle width="80" height="30" as="alternateBounds" />
          </mxGeometry>
        </mxCell>
        <mxCell id="a3jmj70PFrFVS5s3Yc7b-474" value="decimal (N)" style="shape=partialRectangle;html=1;whiteSpace=wrap;connectable=0;fillColor=none;top=0;left=0;bottom=0;right=0;align=left;spacingLeft=6;overflow=hidden;strokeColor=inherit;fontSize=16;" parent="a3jmj70PFrFVS5s3Yc7b-472" vertex="1">
          <mxGeometry x="80" width="170" height="30" as="geometry">
            <mxRectangle width="170" height="30" as="alternateBounds" />
          </mxGeometry>
        </mxCell>
        <mxCell id="a3jmj70PFrFVS5s3Yc7b-466" value="" style="shape=tableRow;horizontal=0;startSize=0;swimlaneHead=0;swimlaneBody=0;top=0;left=0;bottom=0;right=0;collapsible=0;dropTarget=0;fillColor=none;points=[[0,0.5],[1,0.5]];portConstraint=eastwest;strokeColor=inherit;fontSize=16;" parent="a3jmj70PFrFVS5s3Yc7b-405" vertex="1">
          <mxGeometry x="190" y="670" width="250" height="30" as="geometry" />
        </mxCell>
        <mxCell id="a3jmj70PFrFVS5s3Yc7b-520" style="edgeStyle=orthogonalEdgeStyle;rounded=0;orthogonalLoop=1;jettySize=auto;html=1;exitX=0;exitY=0.5;exitDx=0;exitDy=0;" parent="a3jmj70PFrFVS5s3Yc7b-405" source="a3jmj70PFrFVS5s3Yc7b-476" target="a3jmj70PFrFVS5s3Yc7b-518" edge="1">
          <mxGeometry relative="1" as="geometry" />
        </mxCell>
        <mxCell id="a3jmj70PFrFVS5s3Yc7b-476" value="Return" style="whiteSpace=wrap;html=1;fontSize=16;startSize=30;fontStyle=1;fillColor=#008a00;fontColor=#ffffff;strokeColor=#005700;" parent="a3jmj70PFrFVS5s3Yc7b-405" vertex="1">
          <mxGeometry x="214" y="655" width="120" height="60" as="geometry" />
        </mxCell>
        <mxCell id="a3jmj70PFrFVS5s3Yc7b-518" value="" style="ellipse;whiteSpace=wrap;html=1;aspect=fixed;" parent="a3jmj70PFrFVS5s3Yc7b-405" vertex="1">
          <mxGeometry x="40" y="640" width="50" height="50" as="geometry" />
        </mxCell>
        <mxCell id="a3jmj70PFrFVS5s3Yc7b-519" value="" style="ellipse;whiteSpace=wrap;html=1;aspect=fixed;fillColor=#FFFFFF;" parent="a3jmj70PFrFVS5s3Yc7b-405" vertex="1">
          <mxGeometry x="43.75" y="643.75" width="42.5" height="42.5" as="geometry" />
        </mxCell>
        <mxCell id="a3jmj70PFrFVS5s3Yc7b-406" value="" style="endArrow=classic;html=1;rounded=0;" parent="1" edge="1">
          <mxGeometry relative="1" as="geometry">
            <mxPoint x="4190" y="230" as="sourcePoint" />
            <mxPoint x="4350" y="230" as="targetPoint" />
          </mxGeometry>
        </mxCell>
        <mxCell id="a3jmj70PFrFVS5s3Yc7b-407" value="access" style="edgeLabel;resizable=0;html=1;;align=center;verticalAlign=middle;" parent="a3jmj70PFrFVS5s3Yc7b-406" connectable="0" vertex="1">
          <mxGeometry relative="1" as="geometry" />
        </mxCell>
        <mxCell id="a3jmj70PFrFVS5s3Yc7b-408" value="Service" style="edgeLabel;resizable=0;html=1;;align=left;verticalAlign=bottom;" parent="a3jmj70PFrFVS5s3Yc7b-406" connectable="0" vertex="1">
          <mxGeometry x="-1" relative="1" as="geometry" />
        </mxCell>
        <mxCell id="a3jmj70PFrFVS5s3Yc7b-409" value="DB" style="edgeLabel;resizable=0;html=1;;align=right;verticalAlign=bottom;" parent="a3jmj70PFrFVS5s3Yc7b-406" connectable="0" vertex="1">
          <mxGeometry x="1" relative="1" as="geometry">
            <mxPoint y="-5" as="offset" />
          </mxGeometry>
        </mxCell>
        <mxCell id="a3jmj70PFrFVS5s3Yc7b-410" value="" style="endArrow=classic;html=1;rounded=0;" parent="1" edge="1">
          <mxGeometry relative="1" as="geometry">
            <mxPoint x="4350" y="260" as="sourcePoint" />
            <mxPoint x="4190" y="260" as="targetPoint" />
          </mxGeometry>
        </mxCell>
        <mxCell id="a3jmj70PFrFVS5s3Yc7b-411" value="return" style="edgeLabel;resizable=0;html=1;;align=center;verticalAlign=middle;" parent="a3jmj70PFrFVS5s3Yc7b-410" connectable="0" vertex="1">
          <mxGeometry relative="1" as="geometry" />
        </mxCell>
        <mxCell id="a3jmj70PFrFVS5s3Yc7b-412" value="DB" style="edgeLabel;resizable=0;html=1;;align=left;verticalAlign=bottom;" parent="a3jmj70PFrFVS5s3Yc7b-410" connectable="0" vertex="1">
          <mxGeometry x="-1" relative="1" as="geometry">
            <mxPoint x="-20" as="offset" />
          </mxGeometry>
        </mxCell>
        <mxCell id="a3jmj70PFrFVS5s3Yc7b-413" value="Service" style="edgeLabel;resizable=0;html=1;;align=right;verticalAlign=bottom;" parent="a3jmj70PFrFVS5s3Yc7b-410" connectable="0" vertex="1">
          <mxGeometry x="1" relative="1" as="geometry">
            <mxPoint x="40" y="20" as="offset" />
          </mxGeometry>
        </mxCell>
      </root>
    </mxGraphModel>
  </diagram>
</mxfile>
